<svg preserveAspectRatio="none" width="100%" height="100%" overflow="visible" style="display: block;" viewBox="0 0 243.796 295.781" fill="none" xmlns="http://www.w3.org/2000/svg">
<g id="Group" opacity="0.9">
<path id="Vector" d="M121.898 79.359C143.57 79.359 161.138 61.7727 161.138 40.079C161.138 18.3852 143.57 0.798959 121.898 0.798959C100.226 0.798959 82.6579 18.3852 82.6579 40.079C82.6579 61.7727 100.226 79.359 121.898 79.359Z" stroke="url(#paint0_linear_0_19)" stroke-opacity="0.8" stroke-width="1.59792" stroke-miterlimit="10"/>
<path id="Vector_2" d="M121.898 88.1364C144.9 88.1364 163.548 69.4706 163.548 46.4451C163.548 23.4197 144.9 4.75386 121.898 4.75386C98.8954 4.75386 80.2482 23.4197 80.2482 46.4451C80.2482 69.4706 98.8954 88.1364 121.898 88.1364Z" stroke="url(#paint1_linear_0_19)" stroke-opacity="0.8" stroke-width="1.59792" stroke-miterlimit="10"/>
<path id="Vector_3" d="M121.898 97.2691C146.427 97.2691 166.312 77.3642 166.312 52.8102C166.312 28.2563 146.427 8.35135 121.898 8.35135C97.3695 8.35135 77.4849 28.2563 77.4849 52.8102C77.4849 77.3642 97.3695 97.2691 121.898 97.2691Z" stroke="url(#paint2_linear_0_19)" stroke-opacity="0.8" stroke-width="1.59792" stroke-miterlimit="10"/>
<path id="Vector_4" d="M121.898 106.695C148.116 106.695 169.369 85.4205 169.369 59.1765C169.369 32.9326 148.116 11.6576 121.898 11.6576C95.6806 11.6576 74.4272 32.9326 74.4272 59.1765C74.4272 85.4205 95.6806 106.695 121.898 106.695Z" stroke="url(#paint3_linear_0_19)" stroke-opacity="0.8" stroke-width="1.59792" stroke-miterlimit="10"/>
<path id="Vector_5" d="M121.898 116.362C149.936 116.362 172.666 93.6093 172.666 65.5425C172.666 37.4757 149.936 14.7231 121.898 14.7231C93.8594 14.7231 71.1297 37.4757 71.1297 65.5425C71.1297 93.6093 93.8594 116.362 121.898 116.362Z" stroke="url(#paint4_linear_0_19)" stroke-opacity="0.8" stroke-width="1.59792" stroke-miterlimit="10"/>
<path id="Vector_6" d="M121.898 126.224C151.866 126.224 176.159 101.906 176.159 71.9074C176.159 41.9093 151.866 17.591 121.898 17.591C91.9305 17.591 67.6369 41.9093 67.6369 71.9074C67.6369 101.906 91.9305 126.224 121.898 126.224Z" stroke="url(#paint5_linear_0_19)" stroke-opacity="0.8" stroke-width="1.59792" stroke-miterlimit="10"/>
<path id="Vector_7" d="M121.898 136.248C153.884 136.248 179.814 110.292 179.814 78.2737C179.814 46.2555 153.884 20.2996 121.898 20.2996C89.9122 20.2996 63.9824 46.2555 63.9824 78.2737C63.9824 110.292 89.9122 136.248 121.898 136.248Z" stroke="url(#paint6_linear_0_19)" stroke-opacity="0.8" stroke-width="1.59792" stroke-miterlimit="10"/>
<path id="Vector_8" d="M121.898 146.405C155.976 146.405 183.601 118.752 183.601 84.6397C183.601 50.5278 155.976 22.8746 121.898 22.8746C87.8206 22.8746 60.1954 50.5278 60.1954 84.6397C60.1954 118.752 87.8206 146.405 121.898 146.405Z" stroke="url(#paint7_linear_0_19)" stroke-opacity="0.8" stroke-width="1.59792" stroke-miterlimit="10"/>
<path id="Vector_9" d="M121.898 156.67C158.127 156.67 187.496 127.271 187.496 91.0051C187.496 54.7394 158.127 25.3403 121.898 25.3403C85.6689 25.3403 56.2994 54.7394 56.2994 91.0051C56.2994 127.271 85.6689 156.67 121.898 156.67Z" stroke="url(#paint8_linear_0_19)" stroke-opacity="0.8" stroke-width="1.59792" stroke-miterlimit="10"/>
<path id="Vector_10" d="M121.898 167.027C160.329 167.027 191.483 135.841 191.483 97.3714C191.483 58.9017 160.329 27.7158 121.898 27.7158C83.467 27.7158 52.3126 58.9017 52.3126 97.3714C52.3126 135.841 83.467 167.027 121.898 167.027Z" stroke="url(#paint9_linear_0_19)" stroke-opacity="0.8" stroke-width="1.59792" stroke-miterlimit="10"/>
<path id="Vector_11" d="M121.898 177.46C162.573 177.46 195.547 144.453 195.547 103.737C195.547 63.0205 162.573 30.0135 121.898 30.0135C81.2229 30.0135 48.2492 63.0205 48.2492 103.737C48.2492 144.453 81.2229 177.46 121.898 177.46Z" stroke="url(#paint10_linear_0_19)" stroke-opacity="0.8" stroke-width="1.59792" stroke-miterlimit="10"/>
<path id="Vector_12" d="M121.898 187.957C164.853 187.957 199.674 153.101 199.674 110.103C199.674 67.105 164.853 32.2483 121.898 32.2483C78.9436 32.2483 44.122 67.105 44.122 110.103C44.122 153.101 78.9436 187.957 121.898 187.957Z" stroke="url(#paint11_linear_0_19)" stroke-opacity="0.8" stroke-width="1.59792" stroke-miterlimit="10"/>
<path id="Vector_13" d="M121.898 198.51C167.162 198.51 203.856 161.779 203.856 116.469C203.856 71.1587 167.162 34.4277 121.898 34.4277C76.634 34.4277 39.9401 71.1587 39.9401 116.469C39.9401 161.779 76.634 198.51 121.898 198.51Z" stroke="url(#paint12_linear_0_19)" stroke-opacity="0.8" stroke-width="1.59792" stroke-miterlimit="10"/>
<path id="Vector_14" d="M121.898 209.108C169.498 209.108 208.085 170.482 208.085 122.834C208.085 75.186 169.498 36.5598 121.898 36.5598C74.2982 36.5598 35.711 75.186 35.711 122.834C35.711 170.482 74.2982 209.108 121.898 209.108Z" stroke="url(#paint13_linear_0_19)" stroke-opacity="0.8" stroke-width="1.59792" stroke-miterlimit="10"/>
<path id="Vector_15" d="M121.898 219.747C171.856 219.747 212.354 179.208 212.354 129.2C212.354 79.1927 171.856 38.6535 121.898 38.6535C71.9409 38.6535 31.4425 79.1927 31.4425 129.2C31.4425 179.208 71.9409 219.747 121.898 219.747Z" stroke="url(#paint14_linear_0_19)" stroke-opacity="0.8" stroke-width="1.59792" stroke-miterlimit="10"/>
<path id="Vector_16" d="M121.898 230.421C174.232 230.421 216.657 187.953 216.657 135.566C216.657 83.1794 174.232 40.7114 121.898 40.7114C69.5642 40.7114 27.1391 83.1794 27.1391 135.566C27.1391 187.953 69.5642 230.421 121.898 230.421Z" stroke="url(#paint15_linear_0_19)" stroke-opacity="0.8" stroke-width="1.59792" stroke-miterlimit="10"/>
<path id="Vector_17" d="M121.898 241.125C176.625 241.125 220.99 196.714 220.99 141.931C220.99 87.1485 176.625 42.7383 121.898 42.7383C67.1708 42.7383 22.8056 87.1485 22.8056 141.931C22.8056 196.714 67.1708 241.125 121.898 241.125Z" stroke="url(#paint16_linear_0_19)" stroke-opacity="0.8" stroke-width="1.59792" stroke-miterlimit="10"/>
<path id="Vector_18" d="M121.898 251.855C179.033 251.855 225.35 205.491 225.35 148.298C225.35 91.1049 179.033 44.7408 121.898 44.7408C64.7629 44.7408 18.4457 91.1049 18.4457 148.298C18.4457 205.491 64.7629 251.855 121.898 251.855Z" stroke="url(#paint17_linear_0_19)" stroke-opacity="0.8" stroke-width="1.59792" stroke-miterlimit="10"/>
<path id="Vector_19" d="M121.898 262.609C181.454 262.609 229.734 214.28 229.734 154.664C229.734 95.0474 181.454 46.7188 121.898 46.7188C62.3422 46.7188 14.0626 95.0474 14.0626 154.664C14.0626 214.28 62.3422 262.609 121.898 262.609Z" stroke="url(#paint18_linear_0_19)" stroke-opacity="0.8" stroke-width="1.59792" stroke-miterlimit="10"/>
<path id="Vector_20" d="M121.898 273.382C183.886 273.382 234.137 223.08 234.137 161.029C234.137 98.9784 183.886 48.6764 121.898 48.6764C59.9099 48.6764 9.65863 98.9784 9.65863 161.029C9.65863 223.08 59.9099 273.382 121.898 273.382Z" stroke="url(#paint19_linear_0_19)" stroke-opacity="0.8" stroke-width="1.59792" stroke-miterlimit="10"/>
<path id="Vector_21" d="M121.898 284.174C186.328 284.174 238.559 231.89 238.559 167.395C238.559 102.9 186.328 50.616 121.898 50.616C57.468 50.616 5.23718 102.9 5.23718 167.395C5.23718 231.89 57.468 284.174 121.898 284.174Z" stroke="url(#paint20_linear_0_19)" stroke-opacity="0.8" stroke-width="1.59792" stroke-miterlimit="10"/>
<path id="Vector_22" d="M121.898 294.982C188.779 294.982 242.997 240.709 242.997 173.761C242.997 106.812 188.779 52.5393 121.898 52.5393C55.0168 52.5393 0.798959 106.812 0.798959 173.761C0.798959 240.709 55.0168 294.982 121.898 294.982Z" stroke="url(#paint21_linear_0_19)" stroke-opacity="0.8" stroke-width="1.59792" stroke-miterlimit="10"/>
</g>
<defs>
<linearGradient id="paint0_linear_0_19" x1="82.6579" y1="40.079" x2="161.138" y2="40.079" gradientUnits="userSpaceOnUse">
<stop stop-color="white"/>
<stop offset="1" stop-color="#7AB547"/>
</linearGradient>
<linearGradient id="paint1_linear_0_19" x1="80.2482" y1="46.4451" x2="163.548" y2="46.4451" gradientUnits="userSpaceOnUse">
<stop stop-color="white"/>
<stop offset="1" stop-color="#7AB547"/>
</linearGradient>
<linearGradient id="paint2_linear_0_19" x1="77.4849" y1="52.8102" x2="166.312" y2="52.8102" gradientUnits="userSpaceOnUse">
<stop stop-color="white"/>
<stop offset="1" stop-color="#7AB547"/>
</linearGradient>
<linearGradient id="paint3_linear_0_19" x1="74.4272" y1="59.1765" x2="169.369" y2="59.1765" gradientUnits="userSpaceOnUse">
<stop stop-color="white"/>
<stop offset="1" stop-color="#7AB547"/>
</linearGradient>
<linearGradient id="paint4_linear_0_19" x1="71.1297" y1="65.5425" x2="172.666" y2="65.5425" gradientUnits="userSpaceOnUse">
<stop stop-color="white"/>
<stop offset="1" stop-color="#7AB547"/>
</linearGradient>
<linearGradient id="paint5_linear_0_19" x1="67.6369" y1="71.9074" x2="176.159" y2="71.9074" gradientUnits="userSpaceOnUse">
<stop stop-color="white"/>
<stop offset="1" stop-color="#7AB547"/>
</linearGradient>
<linearGradient id="paint6_linear_0_19" x1="63.9824" y1="78.2737" x2="179.814" y2="78.2737" gradientUnits="userSpaceOnUse">
<stop stop-color="white"/>
<stop offset="1" stop-color="#7AB547"/>
</linearGradient>
<linearGradient id="paint7_linear_0_19" x1="60.1954" y1="84.6397" x2="183.601" y2="84.6397" gradientUnits="userSpaceOnUse">
<stop stop-color="white"/>
<stop offset="1" stop-color="#7AB547"/>
</linearGradient>
<linearGradient id="paint8_linear_0_19" x1="56.2994" y1="91.0051" x2="187.496" y2="91.0051" gradientUnits="userSpaceOnUse">
<stop stop-color="white"/>
<stop offset="1" stop-color="#7AB547"/>
</linearGradient>
<linearGradient id="paint9_linear_0_19" x1="52.3126" y1="97.3714" x2="191.483" y2="97.3714" gradientUnits="userSpaceOnUse">
<stop stop-color="white"/>
<stop offset="1" stop-color="#7AB547"/>
</linearGradient>
<linearGradient id="paint10_linear_0_19" x1="48.2492" y1="103.737" x2="195.547" y2="103.737" gradientUnits="userSpaceOnUse">
<stop stop-color="white"/>
<stop offset="1" stop-color="#7AB547"/>
</linearGradient>
<linearGradient id="paint11_linear_0_19" x1="44.122" y1="110.103" x2="199.674" y2="110.103" gradientUnits="userSpaceOnUse">
<stop stop-color="white"/>
<stop offset="1" stop-color="#7AB547"/>
</linearGradient>
<linearGradient id="paint12_linear_0_19" x1="39.9401" y1="116.469" x2="203.856" y2="116.469" gradientUnits="userSpaceOnUse">
<stop stop-color="white"/>
<stop offset="1" stop-color="#7AB547"/>
</linearGradient>
<linearGradient id="paint13_linear_0_19" x1="35.711" y1="122.834" x2="208.085" y2="122.834" gradientUnits="userSpaceOnUse">
<stop stop-color="white"/>
<stop offset="1" stop-color="#7AB547"/>
</linearGradient>
<linearGradient id="paint14_linear_0_19" x1="31.4425" y1="129.2" x2="212.354" y2="129.2" gradientUnits="userSpaceOnUse">
<stop stop-color="white"/>
<stop offset="1" stop-color="#7AB547"/>
</linearGradient>
<linearGradient id="paint15_linear_0_19" x1="27.1391" y1="135.566" x2="216.657" y2="135.566" gradientUnits="userSpaceOnUse">
<stop stop-color="white"/>
<stop offset="1" stop-color="#7AB547"/>
</linearGradient>
<linearGradient id="paint16_linear_0_19" x1="22.8056" y1="141.931" x2="220.99" y2="141.931" gradientUnits="userSpaceOnUse">
<stop stop-color="white"/>
<stop offset="1" stop-color="#7AB547"/>
</linearGradient>
<linearGradient id="paint17_linear_0_19" x1="18.4457" y1="148.298" x2="225.35" y2="148.298" gradientUnits="userSpaceOnUse">
<stop stop-color="white"/>
<stop offset="1" stop-color="#7AB547"/>
</linearGradient>
<linearGradient id="paint18_linear_0_19" x1="14.0626" y1="154.664" x2="229.734" y2="154.664" gradientUnits="userSpaceOnUse">
<stop stop-color="white"/>
<stop offset="1" stop-color="#7AB547"/>
</linearGradient>
<linearGradient id="paint19_linear_0_19" x1="9.65863" y1="161.029" x2="234.137" y2="161.029" gradientUnits="userSpaceOnUse">
<stop stop-color="white"/>
<stop offset="1" stop-color="#7AB547"/>
</linearGradient>
<linearGradient id="paint20_linear_0_19" x1="5.23718" y1="167.395" x2="238.559" y2="167.395" gradientUnits="userSpaceOnUse">
<stop stop-color="white"/>
<stop offset="1" stop-color="#7AB547"/>
</linearGradient>
<linearGradient id="paint21_linear_0_19" x1="0.798959" y1="173.761" x2="242.997" y2="173.761" gradientUnits="userSpaceOnUse">
<stop stop-color="white"/>
<stop offset="1" stop-color="#7AB547"/>
</linearGradient>
</defs>
</svg>
