<svg width="382" height="375" viewBox="0 0 382 375" fill="none" xmlns="http://www.w3.org/2000/svg">
<g id="Frame 1321315332">
<g id="Group" opacity="0.9">
<path id="Vector" d="M137.972 231.266C124.061 214.649 99.2989 212.467 82.6646 226.392C66.0303 240.318 63.8228 265.078 77.7341 281.695C91.6454 298.312 116.408 300.495 133.042 286.569C149.676 272.644 151.884 247.884 137.972 231.266Z" stroke="url(#paint0_linear_0_1)" stroke-opacity="0.8" stroke-width="1.59792" stroke-miterlimit="10"/>
<path id="Vector_2" d="M144.702 225.632C129.937 207.994 103.654 205.677 85.999 220.458C68.3436 235.238 66.0009 261.518 80.7665 279.156C95.532 296.794 121.814 299.11 139.47 284.33C157.125 269.55 159.468 243.27 144.702 225.632Z" stroke="url(#paint1_linear_0_1)" stroke-opacity="0.8" stroke-width="1.59792" stroke-miterlimit="10"/>
<path id="Vector_3" d="M151.705 219.77C135.96 200.962 107.933 198.492 89.1054 214.254C70.2779 230.015 67.7794 258.039 83.5247 276.847C99.27 295.656 127.297 298.125 146.124 282.364C164.952 266.602 167.45 238.578 151.705 219.77Z" stroke="url(#paint2_linear_0_1)" stroke-opacity="0.8" stroke-width="1.59792" stroke-miterlimit="10"/>
<path id="Vector_4" d="M158.933 213.718C142.104 193.615 112.148 190.975 92.0243 207.821C71.901 224.667 69.2307 254.621 86.06 274.724C102.889 294.827 132.845 297.467 152.969 280.62C173.092 263.774 175.762 233.821 158.933 213.718Z" stroke="url(#paint3_linear_0_1)" stroke-opacity="0.8" stroke-width="1.59792" stroke-miterlimit="10"/>
<path id="Vector_5" d="M166.345 207.513C148.346 186.013 116.31 183.19 94.7887 201.206C73.2677 219.223 70.412 251.256 88.4102 272.756C106.408 294.255 138.445 297.079 159.966 279.062C181.487 261.046 184.343 229.012 166.345 207.513Z" stroke="url(#paint4_linear_0_1)" stroke-opacity="0.8" stroke-width="1.59792" stroke-miterlimit="10"/>
<path id="Vector_6" d="M173.907 201.183C154.67 178.204 120.429 175.186 97.4272 194.443C74.4252 213.699 71.3728 247.937 90.6094 270.915C109.846 293.894 144.087 296.912 167.089 277.655C190.091 258.399 193.143 224.161 173.907 201.183Z" stroke="url(#paint5_linear_0_1)" stroke-opacity="0.8" stroke-width="1.59792" stroke-miterlimit="10"/>
<path id="Vector_7" d="M181.593 194.749C161.061 170.223 124.514 167.002 99.963 187.555C75.4121 208.108 72.1543 244.651 92.6864 269.178C113.219 293.704 149.766 296.925 174.316 276.372C198.867 255.819 202.125 219.275 181.593 194.749Z" stroke="url(#paint6_linear_0_1)" stroke-opacity="0.8" stroke-width="1.59792" stroke-miterlimit="10"/>
<path id="Vector_8" d="M189.381 188.228C167.506 162.098 128.57 158.667 102.413 180.564C76.2569 202.46 72.786 241.394 94.6608 267.524C116.536 293.654 155.472 297.085 181.629 275.188C207.785 253.292 211.256 214.358 189.381 188.228Z" stroke="url(#paint7_linear_0_1)" stroke-opacity="0.8" stroke-width="1.59792" stroke-miterlimit="10"/>
<path id="Vector_9" d="M197.252 181.639C173.997 153.859 132.601 150.211 104.794 173.49C76.9859 196.77 73.2958 238.161 96.5517 265.941C119.807 293.721 161.203 297.369 189.01 274.089C216.818 250.81 220.508 209.419 197.252 181.639Z" stroke="url(#paint8_linear_0_1)" stroke-opacity="0.8" stroke-width="1.59792" stroke-miterlimit="10"/>
<path id="Vector_10" d="M205.194 174.992C180.525 145.524 136.614 141.654 107.116 166.348C77.6184 191.042 73.7041 234.949 98.3733 264.417C123.043 293.885 166.954 297.755 196.451 273.061C225.949 248.367 229.864 204.46 205.194 174.992Z" stroke="url(#paint9_linear_0_1)" stroke-opacity="0.8" stroke-width="1.59792" stroke-miterlimit="10"/>
<path id="Vector_11" d="M213.194 168.294C187.084 137.106 140.609 133.01 109.388 159.146C78.1681 185.282 74.0252 231.753 100.135 262.942C126.245 294.131 172.72 298.227 203.94 272.091C235.161 245.954 239.304 199.483 213.194 168.294Z" stroke="url(#paint10_linear_0_1)" stroke-opacity="0.8" stroke-width="1.59792" stroke-miterlimit="10"/>
<path id="Vector_12" d="M221.243 161.556C193.67 128.619 144.591 124.294 111.621 151.895C78.6508 179.495 74.2758 228.571 101.849 261.508C129.422 294.444 178.502 298.77 211.472 271.169C244.441 243.568 248.816 194.493 221.243 161.556Z" stroke="url(#paint11_linear_0_1)" stroke-opacity="0.8" stroke-width="1.59792" stroke-miterlimit="10"/>
<path id="Vector_13" d="M229.335 154.781C200.279 120.074 148.56 115.516 113.818 144.601C79.0749 173.686 74.4645 225.4 103.52 260.108C132.576 294.815 184.294 299.373 219.037 270.288C253.78 241.203 258.39 189.489 229.335 154.781Z" stroke="url(#paint12_linear_0_1)" stroke-opacity="0.8" stroke-width="1.59792" stroke-miterlimit="10"/>
<path id="Vector_14" d="M237.461 147.98C206.906 111.481 152.519 106.688 115.984 137.274C79.4485 167.859 74.6003 222.242 105.155 258.74C135.71 295.239 190.097 300.032 226.632 269.446C263.168 238.86 268.016 184.478 237.461 147.98Z" stroke="url(#paint13_linear_0_1)" stroke-opacity="0.8" stroke-width="1.59792" stroke-miterlimit="10"/>
<path id="Vector_15" d="M245.618 141.149C213.55 102.842 156.469 97.8116 118.124 129.912C79.7796 162.012 74.6914 219.088 106.76 257.395C138.828 295.701 195.909 300.732 234.254 268.631C272.598 236.531 277.687 179.455 245.618 141.149Z" stroke="url(#paint14_linear_0_1)" stroke-opacity="0.8" stroke-width="1.59792" stroke-miterlimit="10"/>
<path id="Vector_16" d="M253.803 134.297C220.21 94.1682 160.413 88.8982 120.244 122.526C80.0748 156.154 74.7444 215.945 108.338 256.073C141.932 296.202 201.728 301.472 241.898 267.844C282.067 234.217 287.397 174.425 253.803 134.297Z" stroke="url(#paint15_linear_0_1)" stroke-opacity="0.8" stroke-width="1.59792" stroke-miterlimit="10"/>
<path id="Vector_17" d="M262.011 127.428C226.881 85.4639 164.349 79.9531 122.343 115.119C80.3366 150.285 74.7623 212.81 109.892 254.774C145.022 296.738 207.554 302.249 249.56 267.083C291.566 231.917 297.141 169.391 262.011 127.428Z" stroke="url(#paint16_linear_0_1)" stroke-opacity="0.8" stroke-width="1.59792" stroke-miterlimit="10"/>
<path id="Vector_18" d="M270.238 120.539C233.563 76.7286 168.28 70.9752 124.426 107.688C80.5714 144.401 74.7519 209.678 111.428 253.488C148.103 297.298 213.386 303.051 257.24 266.338C301.095 229.625 306.914 164.349 270.238 120.539Z" stroke="url(#paint17_linear_0_1)" stroke-opacity="0.8" stroke-width="1.59792" stroke-miterlimit="10"/>
<path id="Vector_19" d="M278.484 113.636C240.254 67.9702 172.206 61.9731 126.493 100.241C80.7807 138.51 74.7145 206.552 112.944 252.219C151.174 297.885 219.222 303.882 264.935 265.613C310.647 227.345 316.714 159.303 278.484 113.636Z" stroke="url(#paint18_linear_0_1)" stroke-opacity="0.8" stroke-width="1.59792" stroke-miterlimit="10"/>
<path id="Vector_20" d="M286.745 106.72C246.954 59.1887 176.127 52.9465 128.547 92.7776C80.9682 132.609 74.6545 203.43 114.445 250.961C154.236 298.492 225.064 304.734 272.643 264.903C320.222 225.072 326.536 154.251 286.745 106.72Z" stroke="url(#paint19_linear_0_1)" stroke-opacity="0.8" stroke-width="1.59792" stroke-miterlimit="10"/>
<path id="Vector_21" d="M295.02 99.7935C253.661 50.39 180.044 43.902 130.59 85.3023C81.1366 126.703 74.5741 200.314 115.932 249.717C157.291 299.121 230.908 305.609 280.362 264.208C329.816 222.808 336.378 149.197 295.02 99.7935Z" stroke="url(#paint20_linear_0_1)" stroke-opacity="0.8" stroke-width="1.59792" stroke-miterlimit="10"/>
<path id="Vector_22" d="M303.307 92.8553C260.376 41.5723 183.958 34.8374 132.623 77.8125C81.2879 120.788 74.4759 197.199 117.408 248.482C160.339 299.765 236.758 306.5 288.092 263.525C339.427 220.55 346.239 144.138 303.307 92.8553Z" stroke="url(#paint21_linear_0_1)" stroke-opacity="0.8" stroke-width="1.59792" stroke-miterlimit="10"/>
</g>
</g>
<defs>
<linearGradient id="paint0_linear_0_1" x1="133.042" y1="286.569" x2="82.6646" y2="226.392" gradientUnits="userSpaceOnUse">
<stop stop-color="#7AB547"/>
<stop offset="1" stop-color="white"/>
</linearGradient>
<linearGradient id="paint1_linear_0_1" x1="139.47" y1="284.33" x2="85.999" y2="220.458" gradientUnits="userSpaceOnUse">
<stop stop-color="#7AB547"/>
<stop offset="1" stop-color="white"/>
</linearGradient>
<linearGradient id="paint2_linear_0_1" x1="146.124" y1="282.364" x2="89.1054" y2="214.254" gradientUnits="userSpaceOnUse">
<stop stop-color="#7AB547"/>
<stop offset="1" stop-color="white"/>
</linearGradient>
<linearGradient id="paint3_linear_0_1" x1="152.969" y1="280.62" x2="92.0243" y2="207.821" gradientUnits="userSpaceOnUse">
<stop stop-color="#7AB547"/>
<stop offset="1" stop-color="white"/>
</linearGradient>
<linearGradient id="paint4_linear_0_1" x1="159.966" y1="279.062" x2="94.7887" y2="201.206" gradientUnits="userSpaceOnUse">
<stop stop-color="#7AB547"/>
<stop offset="1" stop-color="white"/>
</linearGradient>
<linearGradient id="paint5_linear_0_1" x1="167.089" y1="277.655" x2="97.4272" y2="194.443" gradientUnits="userSpaceOnUse">
<stop stop-color="#7AB547"/>
<stop offset="1" stop-color="white"/>
</linearGradient>
<linearGradient id="paint6_linear_0_1" x1="174.317" y1="276.372" x2="99.963" y2="187.555" gradientUnits="userSpaceOnUse">
<stop stop-color="#7AB547"/>
<stop offset="1" stop-color="white"/>
</linearGradient>
<linearGradient id="paint7_linear_0_1" x1="181.629" y1="275.188" x2="102.413" y2="180.564" gradientUnits="userSpaceOnUse">
<stop stop-color="#7AB547"/>
<stop offset="1" stop-color="white"/>
</linearGradient>
<linearGradient id="paint8_linear_0_1" x1="189.011" y1="274.089" x2="104.794" y2="173.49" gradientUnits="userSpaceOnUse">
<stop stop-color="#7AB547"/>
<stop offset="1" stop-color="white"/>
</linearGradient>
<linearGradient id="paint9_linear_0_1" x1="196.451" y1="273.061" x2="107.116" y2="166.348" gradientUnits="userSpaceOnUse">
<stop stop-color="#7AB547"/>
<stop offset="1" stop-color="white"/>
</linearGradient>
<linearGradient id="paint10_linear_0_1" x1="203.94" y1="272.091" x2="109.388" y2="159.146" gradientUnits="userSpaceOnUse">
<stop stop-color="#7AB547"/>
<stop offset="1" stop-color="white"/>
</linearGradient>
<linearGradient id="paint11_linear_0_1" x1="211.472" y1="271.169" x2="111.621" y2="151.895" gradientUnits="userSpaceOnUse">
<stop stop-color="#7AB547"/>
<stop offset="1" stop-color="white"/>
</linearGradient>
<linearGradient id="paint12_linear_0_1" x1="219.037" y1="270.288" x2="113.818" y2="144.601" gradientUnits="userSpaceOnUse">
<stop stop-color="#7AB547"/>
<stop offset="1" stop-color="white"/>
</linearGradient>
<linearGradient id="paint13_linear_0_1" x1="226.632" y1="269.446" x2="115.984" y2="137.274" gradientUnits="userSpaceOnUse">
<stop stop-color="#7AB547"/>
<stop offset="1" stop-color="white"/>
</linearGradient>
<linearGradient id="paint14_linear_0_1" x1="234.254" y1="268.631" x2="118.124" y2="129.912" gradientUnits="userSpaceOnUse">
<stop stop-color="#7AB547"/>
<stop offset="1" stop-color="white"/>
</linearGradient>
<linearGradient id="paint15_linear_0_1" x1="241.898" y1="267.844" x2="120.244" y2="122.526" gradientUnits="userSpaceOnUse">
<stop stop-color="#7AB547"/>
<stop offset="1" stop-color="white"/>
</linearGradient>
<linearGradient id="paint16_linear_0_1" x1="249.56" y1="267.083" x2="122.343" y2="115.119" gradientUnits="userSpaceOnUse">
<stop stop-color="#7AB547"/>
<stop offset="1" stop-color="white"/>
</linearGradient>
<linearGradient id="paint17_linear_0_1" x1="257.24" y1="266.338" x2="124.426" y2="107.688" gradientUnits="userSpaceOnUse">
<stop stop-color="#7AB547"/>
<stop offset="1" stop-color="white"/>
</linearGradient>
<linearGradient id="paint18_linear_0_1" x1="264.935" y1="265.613" x2="126.493" y2="100.241" gradientUnits="userSpaceOnUse">
<stop stop-color="#7AB547"/>
<stop offset="1" stop-color="white"/>
</linearGradient>
<linearGradient id="paint19_linear_0_1" x1="272.643" y1="264.903" x2="128.547" y2="92.7776" gradientUnits="userSpaceOnUse">
<stop stop-color="#7AB547"/>
<stop offset="1" stop-color="white"/>
</linearGradient>
<linearGradient id="paint20_linear_0_1" x1="280.362" y1="264.208" x2="130.59" y2="85.3023" gradientUnits="userSpaceOnUse">
<stop stop-color="#7AB547"/>
<stop offset="1" stop-color="white"/>
</linearGradient>
<linearGradient id="paint21_linear_0_1" x1="288.092" y1="263.525" x2="132.623" y2="77.8125" gradientUnits="userSpaceOnUse">
<stop stop-color="#7AB547"/>
<stop offset="1" stop-color="white"/>
</linearGradient>
</defs>
</svg>
