<svg width="379" height="381" viewBox="0 0 379 381" fill="none" xmlns="http://www.w3.org/2000/svg">
<rect width="379" height="381" fill="#525252"/>
<g id="&#208;&#147;&#208;&#187;&#208;&#176;&#208;&#178;&#208;&#189;&#208;&#176;&#209;&#143;2">
<rect width="1280" height="8696" transform="translate(-152 -5118)" fill="white"/>
<g id="Frame 1321315324">
<g id="Group" opacity="0.9">
<path id="Vector" d="M141.882 239.679C126.183 224.739 101.333 225.366 86.3771 241.081C71.4215 256.795 72.0238 281.646 87.7224 296.586C103.421 311.527 128.271 310.899 143.227 295.185C158.182 279.47 157.58 254.619 141.882 239.679Z" stroke="url(#paint0_linear_0_1)" stroke-opacity="0.8" stroke-width="1.59792" stroke-miterlimit="10"/>
<path id="Vector_2" d="M147.932 233.321C131.27 217.463 104.894 218.129 89.0201 234.808C73.1464 251.487 73.786 277.864 90.4486 293.722C107.111 309.58 133.487 308.914 149.361 292.234C165.235 275.555 164.595 249.179 147.932 233.321Z" stroke="url(#paint1_linear_0_1)" stroke-opacity="0.8" stroke-width="1.59792" stroke-miterlimit="10"/>
<path id="Vector_3" d="M154.228 226.705C136.46 209.795 108.333 210.505 91.4057 228.292C74.4783 246.078 75.1599 274.205 92.9281 291.116C110.696 308.026 138.823 307.315 155.75 289.529C172.678 271.742 171.996 243.615 154.228 226.705Z" stroke="url(#paint2_linear_0_1)" stroke-opacity="0.8" stroke-width="1.59792" stroke-miterlimit="10"/>
<path id="Vector_4" d="M160.727 219.877C141.736 201.802 111.673 202.562 93.5806 221.572C75.4881 240.583 76.2169 270.646 95.2084 288.72C114.2 306.795 144.262 306.036 162.355 287.025C180.447 268.014 179.719 237.951 160.727 219.877Z" stroke="url(#paint3_linear_0_1)" stroke-opacity="0.8" stroke-width="1.59792" stroke-miterlimit="10"/>
<path id="Vector_5" d="M167.391 212.875C147.081 193.545 114.93 194.357 95.5809 214.688C76.2317 235.019 77.0112 267.17 97.3218 286.5C117.632 305.83 149.783 305.018 169.132 284.687C188.481 264.356 187.702 232.204 167.391 212.875Z" stroke="url(#paint4_linear_0_1)" stroke-opacity="0.8" stroke-width="1.59792" stroke-miterlimit="10"/>
<path id="Vector_6" d="M174.19 205.73C152.481 185.071 118.119 185.939 97.438 207.669C76.7573 229.399 77.5903 263.763 99.2983 284.422C121.006 305.082 155.369 304.214 176.05 282.484C196.731 260.754 195.898 226.39 174.19 205.73Z" stroke="url(#paint5_linear_0_1)" stroke-opacity="0.8" stroke-width="1.59792" stroke-miterlimit="10"/>
<path id="Vector_7" d="M181.1 198.469C157.93 176.418 121.253 177.344 99.1798 200.538C77.1065 223.731 77.9957 260.409 101.166 282.46C124.336 304.511 161.013 303.585 183.086 280.392C205.159 257.198 204.27 220.52 181.1 198.469Z" stroke="url(#paint6_linear_0_1)" stroke-opacity="0.8" stroke-width="1.59792" stroke-miterlimit="10"/>
<path id="Vector_8" d="M188.103 191.112C163.417 167.619 124.342 168.606 100.825 193.316C77.3086 218.026 78.2559 257.102 102.941 280.595C127.626 304.088 166.702 303.101 190.218 278.391C213.735 253.681 212.788 214.605 188.103 191.112Z" stroke="url(#paint7_linear_0_1)" stroke-opacity="0.8" stroke-width="1.59792" stroke-miterlimit="10"/>
<path id="Vector_9" d="M195.18 183.676C168.936 158.7 127.394 159.749 102.392 186.019C77.3908 212.289 78.3978 253.833 104.642 278.809C130.885 303.785 172.428 302.736 197.429 276.466C222.431 250.196 221.424 208.652 195.18 183.676Z" stroke="url(#paint8_linear_0_1)" stroke-opacity="0.8" stroke-width="1.59792" stroke-miterlimit="10"/>
<path id="Vector_10" d="M202.32 176.174C174.481 149.679 130.414 150.792 103.893 178.659C77.372 206.526 78.4402 250.594 106.279 277.088C134.118 303.583 178.185 302.47 204.706 274.603C231.227 246.736 230.158 202.668 202.32 176.174Z" stroke="url(#paint9_linear_0_1)" stroke-opacity="0.8" stroke-width="1.59792" stroke-miterlimit="10"/>
<path id="Vector_11" d="M209.512 168.616C180.047 140.575 133.407 141.753 105.337 171.247C77.2677 200.741 78.3984 247.382 107.863 275.424C137.327 303.465 183.968 302.287 212.037 272.793C240.107 243.299 238.976 196.657 209.512 168.616Z" stroke="url(#paint10_linear_0_1)" stroke-opacity="0.8" stroke-width="1.59792" stroke-miterlimit="10"/>
<path id="Vector_12" d="M216.749 161.012C185.633 131.399 136.379 132.643 106.736 163.79C77.0935 194.937 78.2876 244.192 109.403 273.805C140.519 303.418 189.773 302.174 219.416 271.027C249.058 239.88 247.864 190.625 216.749 161.012Z" stroke="url(#paint11_linear_0_1)" stroke-opacity="0.8" stroke-width="1.59792" stroke-miterlimit="10"/>
<path id="Vector_13" d="M224.024 153.368C191.235 122.163 139.333 123.474 108.096 156.295C76.8595 189.117 78.1176 241.021 110.906 272.226C143.695 303.431 195.598 302.121 226.834 269.299C258.071 236.477 256.813 184.573 224.024 153.368Z" stroke="url(#paint12_linear_0_1)" stroke-opacity="0.8" stroke-width="1.59792" stroke-miterlimit="10"/>
<path id="Vector_14" d="M231.33 145.691C196.85 112.876 142.269 114.254 109.421 148.769C76.5726 183.285 77.8957 237.867 112.376 270.682C146.856 303.497 201.437 302.119 234.285 267.604C267.134 233.088 265.811 178.506 231.33 145.691Z" stroke="url(#paint13_linear_0_1)" stroke-opacity="0.8" stroke-width="1.59792" stroke-miterlimit="10"/>
<path id="Vector_15" d="M238.664 137.984C202.476 103.543 145.192 104.99 110.717 141.214C76.242 177.439 77.6307 234.725 113.819 269.165C150.007 303.605 207.291 302.159 241.766 265.934C276.241 229.71 274.853 172.424 238.664 137.984Z" stroke="url(#paint14_linear_0_1)" stroke-opacity="0.8" stroke-width="1.59792" stroke-miterlimit="10"/>
<path id="Vector_16" d="M246.023 130.252C208.113 94.1731 148.104 95.6885 111.989 133.637C75.8735 171.585 77.3281 231.596 115.238 267.674C153.148 303.753 213.157 302.238 249.272 264.29C285.388 226.342 283.933 166.331 246.023 130.252Z" stroke="url(#paint15_linear_0_1)" stroke-opacity="0.8" stroke-width="1.59792" stroke-miterlimit="10"/>
<path id="Vector_17" d="M253.402 122.499C213.758 84.7697 151.005 86.3545 113.238 126.038C75.4704 165.722 76.9914 228.477 116.635 266.206C156.278 303.935 219.032 302.35 256.799 262.666C294.567 222.983 293.045 160.227 253.402 122.499Z" stroke="url(#paint16_linear_0_1)" stroke-opacity="0.8" stroke-width="1.59792" stroke-miterlimit="10"/>
<path id="Vector_18" d="M260.8 114.726C219.412 75.3368 153.897 76.9912 114.469 118.421C75.0399 159.85 76.628 225.367 118.016 264.756C159.403 304.145 224.918 302.49 264.347 261.061C303.776 219.631 302.187 154.115 260.8 114.726Z" stroke="url(#paint17_linear_0_1)" stroke-opacity="0.8" stroke-width="1.59792" stroke-miterlimit="10"/>
<path id="Vector_19" d="M268.214 106.936C225.072 65.8779 156.782 67.6025 115.683 110.788C74.5832 153.973 76.2385 222.265 119.38 263.323C162.521 304.38 230.812 302.656 271.911 259.471C313.01 216.286 311.355 147.993 268.214 106.936Z" stroke="url(#paint18_linear_0_1)" stroke-opacity="0.8" stroke-width="1.59792" stroke-miterlimit="10"/>
<path id="Vector_20" d="M275.64 99.1318C230.737 56.3974 159.658 58.1922 116.88 103.141C74.1026 148.089 75.8256 219.17 120.729 261.905C165.632 304.639 236.711 302.844 279.489 257.896C322.266 212.947 320.543 141.866 275.64 99.1318Z" stroke="url(#paint19_linear_0_1)" stroke-opacity="0.8" stroke-width="1.59792" stroke-miterlimit="10"/>
<path id="Vector_21" d="M283.08 91.3142C236.408 46.8963 162.529 48.762 118.066 95.4813C73.6032 142.201 75.394 216.082 122.066 260.5C168.738 304.918 242.617 303.052 287.08 256.333C331.543 209.613 329.752 135.732 283.08 91.3142Z" stroke="url(#paint20_linear_0_1)" stroke-opacity="0.8" stroke-width="1.59792" stroke-miterlimit="10"/>
<path id="Vector_22" d="M290.531 83.4852C242.084 37.3776 165.394 39.314 119.24 87.8105C73.0853 136.307 74.9444 212.999 123.392 259.106C171.84 305.214 248.529 303.278 294.684 254.781C340.838 206.285 338.979 129.593 290.531 83.4852Z" stroke="url(#paint21_linear_0_1)" stroke-opacity="0.8" stroke-width="1.59792" stroke-miterlimit="10"/>
</g>
</g>
</g>
<defs>
<linearGradient id="paint0_linear_0_1" x1="143.227" y1="295.185" x2="86.3771" y2="241.081" gradientUnits="userSpaceOnUse">
<stop stop-color="#7AB547"/>
<stop offset="1" stop-color="white"/>
</linearGradient>
<linearGradient id="paint1_linear_0_1" x1="149.361" y1="292.234" x2="89.0201" y2="234.808" gradientUnits="userSpaceOnUse">
<stop stop-color="#7AB547"/>
<stop offset="1" stop-color="white"/>
</linearGradient>
<linearGradient id="paint2_linear_0_1" x1="155.75" y1="289.529" x2="91.4057" y2="228.292" gradientUnits="userSpaceOnUse">
<stop stop-color="#7AB547"/>
<stop offset="1" stop-color="white"/>
</linearGradient>
<linearGradient id="paint3_linear_0_1" x1="162.355" y1="287.025" x2="93.5806" y2="221.572" gradientUnits="userSpaceOnUse">
<stop stop-color="#7AB547"/>
<stop offset="1" stop-color="white"/>
</linearGradient>
<linearGradient id="paint4_linear_0_1" x1="169.132" y1="284.687" x2="95.5809" y2="214.688" gradientUnits="userSpaceOnUse">
<stop stop-color="#7AB547"/>
<stop offset="1" stop-color="white"/>
</linearGradient>
<linearGradient id="paint5_linear_0_1" x1="176.05" y1="282.484" x2="97.438" y2="207.669" gradientUnits="userSpaceOnUse">
<stop stop-color="#7AB547"/>
<stop offset="1" stop-color="white"/>
</linearGradient>
<linearGradient id="paint6_linear_0_1" x1="183.086" y1="280.392" x2="99.1798" y2="200.538" gradientUnits="userSpaceOnUse">
<stop stop-color="#7AB547"/>
<stop offset="1" stop-color="white"/>
</linearGradient>
<linearGradient id="paint7_linear_0_1" x1="190.218" y1="278.391" x2="100.825" y2="193.316" gradientUnits="userSpaceOnUse">
<stop stop-color="#7AB547"/>
<stop offset="1" stop-color="white"/>
</linearGradient>
<linearGradient id="paint8_linear_0_1" x1="197.429" y1="276.466" x2="102.392" y2="186.019" gradientUnits="userSpaceOnUse">
<stop stop-color="#7AB547"/>
<stop offset="1" stop-color="white"/>
</linearGradient>
<linearGradient id="paint9_linear_0_1" x1="204.706" y1="274.603" x2="103.893" y2="178.659" gradientUnits="userSpaceOnUse">
<stop stop-color="#7AB547"/>
<stop offset="1" stop-color="white"/>
</linearGradient>
<linearGradient id="paint10_linear_0_1" x1="212.037" y1="272.793" x2="105.337" y2="171.247" gradientUnits="userSpaceOnUse">
<stop stop-color="#7AB547"/>
<stop offset="1" stop-color="white"/>
</linearGradient>
<linearGradient id="paint11_linear_0_1" x1="219.416" y1="271.027" x2="106.736" y2="163.79" gradientUnits="userSpaceOnUse">
<stop stop-color="#7AB547"/>
<stop offset="1" stop-color="white"/>
</linearGradient>
<linearGradient id="paint12_linear_0_1" x1="226.834" y1="269.299" x2="108.096" y2="156.295" gradientUnits="userSpaceOnUse">
<stop stop-color="#7AB547"/>
<stop offset="1" stop-color="white"/>
</linearGradient>
<linearGradient id="paint13_linear_0_1" x1="234.285" y1="267.604" x2="109.421" y2="148.769" gradientUnits="userSpaceOnUse">
<stop stop-color="#7AB547"/>
<stop offset="1" stop-color="white"/>
</linearGradient>
<linearGradient id="paint14_linear_0_1" x1="241.766" y1="265.934" x2="110.717" y2="141.214" gradientUnits="userSpaceOnUse">
<stop stop-color="#7AB547"/>
<stop offset="1" stop-color="white"/>
</linearGradient>
<linearGradient id="paint15_linear_0_1" x1="249.272" y1="264.29" x2="111.989" y2="133.637" gradientUnits="userSpaceOnUse">
<stop stop-color="#7AB547"/>
<stop offset="1" stop-color="white"/>
</linearGradient>
<linearGradient id="paint16_linear_0_1" x1="256.799" y1="262.666" x2="113.238" y2="126.038" gradientUnits="userSpaceOnUse">
<stop stop-color="#7AB547"/>
<stop offset="1" stop-color="white"/>
</linearGradient>
<linearGradient id="paint17_linear_0_1" x1="264.347" y1="261.061" x2="114.469" y2="118.421" gradientUnits="userSpaceOnUse">
<stop stop-color="#7AB547"/>
<stop offset="1" stop-color="white"/>
</linearGradient>
<linearGradient id="paint18_linear_0_1" x1="271.911" y1="259.471" x2="115.683" y2="110.788" gradientUnits="userSpaceOnUse">
<stop stop-color="#7AB547"/>
<stop offset="1" stop-color="white"/>
</linearGradient>
<linearGradient id="paint19_linear_0_1" x1="279.489" y1="257.896" x2="116.88" y2="103.141" gradientUnits="userSpaceOnUse">
<stop stop-color="#7AB547"/>
<stop offset="1" stop-color="white"/>
</linearGradient>
<linearGradient id="paint20_linear_0_1" x1="287.08" y1="256.333" x2="118.066" y2="95.4813" gradientUnits="userSpaceOnUse">
<stop stop-color="#7AB547"/>
<stop offset="1" stop-color="white"/>
</linearGradient>
<linearGradient id="paint21_linear_0_1" x1="294.684" y1="254.781" x2="119.24" y2="87.8105" gradientUnits="userSpaceOnUse">
<stop stop-color="#7AB547"/>
<stop offset="1" stop-color="white"/>
</linearGradient>
</defs>
</svg>
