<svg width="402" height="347" viewBox="0 0 402 347" fill="none" xmlns="http://www.w3.org/2000/svg">
<g opacity="0.9">
<path d="M294.621 115.302C307.977 143.088 341.351 154.776 369.165 141.407C396.979 128.038 408.701 94.6757 395.345 66.8899C381.99 39.104 348.616 27.4165 320.802 40.7853C292.988 54.1541 281.266 87.5165 294.621 115.302Z" stroke="url(#paint0_linear_1018_79)" stroke-opacity="0.8" stroke-width="2.27114" stroke-miterlimit="10"/>
<path d="M283.367 120.711C297.543 150.203 332.966 162.609 362.487 148.419C392.009 134.23 404.45 98.8189 390.274 69.3267C376.099 39.8345 340.676 27.4292 311.154 41.6186C281.633 55.808 269.192 91.219 283.367 120.711Z" stroke="url(#paint1_linear_1018_79)" stroke-opacity="0.8" stroke-width="2.27114" stroke-miterlimit="10"/>
<path d="M271.658 126.34C286.774 157.789 324.548 171.017 356.03 155.886C387.511 140.754 400.778 102.993 385.662 71.5442C370.546 40.0951 332.772 26.867 301.29 41.9983C269.809 57.1297 256.542 94.8906 271.658 126.34Z" stroke="url(#paint2_linear_1018_79)" stroke-opacity="0.8" stroke-width="2.27114" stroke-miterlimit="10"/>
<path d="M259.572 132.149C275.729 165.763 316.103 179.902 349.751 163.729C383.4 147.556 397.579 107.196 381.423 73.5815C365.266 39.9673 324.892 25.8283 291.244 42.0011C257.595 58.174 243.416 98.5343 259.572 132.149Z" stroke="url(#paint3_linear_1018_79)" stroke-opacity="0.8" stroke-width="2.27114" stroke-miterlimit="10"/>
<path d="M247.179 138.105C264.457 174.054 307.636 189.175 343.622 171.879C379.607 154.583 394.771 111.419 377.493 75.4705C360.214 39.5215 317.035 24.4003 281.05 41.6964C245.065 58.9926 229.9 102.156 247.179 138.105Z" stroke="url(#paint4_linear_1018_79)" stroke-opacity="0.8" stroke-width="2.27114" stroke-miterlimit="10"/>
<path d="M234.534 144.183C253.002 182.605 299.152 198.767 337.613 180.28C376.075 161.794 392.283 115.66 373.815 77.238C355.348 38.8156 309.198 22.6542 270.736 41.1405C232.275 59.6269 216.067 105.761 234.534 144.183Z" stroke="url(#paint5_linear_1018_79)" stroke-opacity="0.8" stroke-width="2.27114" stroke-miterlimit="10"/>
<path d="M221.682 150.36C241.393 191.37 290.651 208.62 331.703 188.889C372.754 169.158 390.054 119.917 370.342 78.9074C350.631 37.8972 301.373 20.6472 260.322 40.3784C219.27 60.1096 201.971 109.35 221.682 150.36Z" stroke="url(#paint6_linear_1018_79)" stroke-opacity="0.8" stroke-width="2.27114" stroke-miterlimit="10"/>
<path d="M208.66 156.62C229.66 200.311 282.139 218.689 325.875 197.668C369.611 176.646 388.042 124.186 367.041 80.4942C346.041 36.8024 293.562 18.4245 249.826 39.4459C206.09 60.4674 187.659 112.928 208.66 156.62Z" stroke="url(#paint7_linear_1018_79)" stroke-opacity="0.8" stroke-width="2.27114" stroke-miterlimit="10"/>
<path d="M195.498 162.945C217.824 209.395 273.617 228.934 320.114 206.585C366.611 184.236 386.206 128.464 363.88 82.0133C341.554 35.5629 285.761 16.0247 239.264 38.3734C192.767 60.7221 173.172 116.495 195.498 162.945Z" stroke="url(#paint8_linear_1018_79)" stroke-opacity="0.8" stroke-width="2.27114" stroke-miterlimit="10"/>
<path d="M182.219 169.328C205.902 218.601 265.086 239.327 314.409 215.62C363.732 191.913 384.517 132.751 360.834 83.4771C337.151 34.2037 277.968 13.478 228.645 37.185C179.322 60.892 158.536 120.054 182.219 169.328Z" stroke="url(#paint9_linear_1018_79)" stroke-opacity="0.8" stroke-width="2.27114" stroke-miterlimit="10"/>
<path d="M168.843 175.757C193.909 227.908 256.548 249.844 308.751 224.753C360.955 199.661 382.954 137.044 357.888 84.8934C332.822 32.7426 270.183 10.8066 217.979 35.8979C165.776 60.9892 143.777 123.606 168.843 175.757Z" stroke="url(#paint10_linear_1018_79)" stroke-opacity="0.8" stroke-width="2.27114" stroke-miterlimit="10"/>
<path d="M155.384 182.226C181.855 237.3 248.004 260.465 303.133 233.968C358.262 207.47 381.494 141.344 355.023 86.2706C328.552 31.1972 262.403 8.03185 207.274 34.5293C152.145 61.0267 128.913 127.153 155.384 182.226Z" stroke="url(#paint11_linear_1018_79)" stroke-opacity="0.8" stroke-width="2.27114" stroke-miterlimit="10"/>
<path d="M141.854 188.729C169.748 246.764 239.455 271.175 297.548 243.252C355.641 215.33 380.123 145.648 352.229 87.6137C324.335 29.5793 254.628 5.1685 196.535 33.0908C138.441 61.0131 113.96 130.695 141.854 188.729Z" stroke="url(#paint12_linear_1018_79)" stroke-opacity="0.8" stroke-width="2.27114" stroke-miterlimit="10"/>
<path d="M128.266 195.26C157.599 256.289 230.902 281.959 291.993 252.596C353.083 223.233 378.828 149.956 349.495 88.9274C320.161 27.8984 246.858 2.22803 185.768 31.591C124.677 60.9539 98.9326 134.231 128.266 195.26Z" stroke="url(#paint13_linear_1018_79)" stroke-opacity="0.8" stroke-width="2.27114" stroke-miterlimit="10"/>
<path d="M114.625 201.817C145.411 265.868 222.345 292.81 286.461 261.993C350.577 231.176 377.597 154.27 346.811 90.2178C316.024 26.1661 239.091 -0.775832 174.975 30.0413C110.858 60.8585 83.8391 137.765 114.625 201.817Z" stroke="url(#paint14_linear_1018_79)" stroke-opacity="0.8" stroke-width="2.27114" stroke-miterlimit="10"/>
<path d="M100.94 208.394C133.191 275.493 213.785 303.717 280.951 271.433C348.118 239.15 376.423 158.585 344.172 91.4858C311.921 24.387 231.328 -3.83651 164.161 28.4469C96.9943 60.7302 68.6893 141.295 100.94 208.394Z" stroke="url(#paint15_linear_1018_79)" stroke-opacity="0.8" stroke-width="2.27114" stroke-miterlimit="10"/>
<path d="M87.2163 214.99C120.942 285.158 205.222 314.672 275.46 280.912C345.699 247.152 375.299 162.902 341.573 92.735C307.847 22.5676 223.568 -6.94655 153.329 26.8134C83.0903 60.5733 53.4906 144.823 87.2163 214.99Z" stroke="url(#paint16_linear_1018_79)" stroke-opacity="0.8" stroke-width="2.27114" stroke-miterlimit="10"/>
<path d="M73.4589 221.603C108.668 294.858 196.656 325.671 269.985 290.425C343.314 255.18 374.215 167.224 339.006 93.9691C303.796 20.7144 215.809 -10.0984 142.48 25.1468C69.1511 60.3919 38.2493 148.348 73.4589 221.603Z" stroke="url(#paint17_linear_1018_79)" stroke-opacity="0.8" stroke-width="2.27114" stroke-miterlimit="10"/>
<path d="M59.6708 228.23C96.3721 304.588 188.088 336.707 264.524 299.968C340.96 263.229 373.171 171.546 336.469 95.188C299.768 18.8297 208.052 -13.2885 131.617 23.45C55.1807 60.1886 22.9696 151.872 59.6708 228.23Z" stroke="url(#paint18_linear_1018_79)" stroke-opacity="0.8" stroke-width="2.27114" stroke-miterlimit="10"/>
<path d="M45.8581 234.869C84.0582 314.345 179.519 347.775 259.076 309.537C338.633 271.298 372.16 175.871 333.96 96.3941C295.759 16.9174 200.298 -16.5126 120.741 21.7261C41.1843 59.9649 7.65795 155.392 45.8581 234.869Z" stroke="url(#paint19_linear_1018_79)" stroke-opacity="0.8" stroke-width="2.27114" stroke-miterlimit="10"/>
<path d="M32.0212 241.52C71.7262 324.127 170.948 358.874 253.639 319.129C336.33 279.383 371.178 180.197 331.473 97.5895C291.768 14.9819 192.546 -19.7649 109.855 19.9803C27.1636 59.7255 -7.6837 158.912 32.0212 241.52Z" stroke="url(#paint20_linear_1018_79)" stroke-opacity="0.8" stroke-width="2.27114" stroke-miterlimit="10"/>
<path d="M18.1646 248.18C59.38 333.93 162.376 369.999 248.213 328.742C334.05 287.485 370.223 184.525 329.007 98.7747C287.792 13.0244 184.795 -23.0444 98.9586 18.2126C13.1218 59.4697 -23.0509 162.429 18.1646 248.18Z" stroke="url(#paint21_linear_1018_79)" stroke-opacity="0.8" stroke-width="2.27114" stroke-miterlimit="10"/>
</g>
<defs>
<linearGradient id="paint0_linear_1018_79" x1="320.802" y1="40.7853" x2="369.165" y2="141.407" gradientUnits="userSpaceOnUse">
<stop stop-color="#7AB547"/>
<stop offset="1" stop-color="white"/>
</linearGradient>
<linearGradient id="paint1_linear_1018_79" x1="311.154" y1="41.6186" x2="362.487" y2="148.419" gradientUnits="userSpaceOnUse">
<stop stop-color="#7AB547"/>
<stop offset="1" stop-color="white"/>
</linearGradient>
<linearGradient id="paint2_linear_1018_79" x1="301.29" y1="41.9983" x2="356.03" y2="155.886" gradientUnits="userSpaceOnUse">
<stop stop-color="#7AB547"/>
<stop offset="1" stop-color="white"/>
</linearGradient>
<linearGradient id="paint3_linear_1018_79" x1="291.244" y1="42.0011" x2="349.751" y2="163.729" gradientUnits="userSpaceOnUse">
<stop stop-color="#7AB547"/>
<stop offset="1" stop-color="white"/>
</linearGradient>
<linearGradient id="paint4_linear_1018_79" x1="281.05" y1="41.6964" x2="343.622" y2="171.879" gradientUnits="userSpaceOnUse">
<stop stop-color="#7AB547"/>
<stop offset="1" stop-color="white"/>
</linearGradient>
<linearGradient id="paint5_linear_1018_79" x1="270.736" y1="41.1405" x2="337.613" y2="180.28" gradientUnits="userSpaceOnUse">
<stop stop-color="#7AB547"/>
<stop offset="1" stop-color="white"/>
</linearGradient>
<linearGradient id="paint6_linear_1018_79" x1="260.322" y1="40.3784" x2="331.703" y2="188.889" gradientUnits="userSpaceOnUse">
<stop stop-color="#7AB547"/>
<stop offset="1" stop-color="white"/>
</linearGradient>
<linearGradient id="paint7_linear_1018_79" x1="249.826" y1="39.4459" x2="325.875" y2="197.668" gradientUnits="userSpaceOnUse">
<stop stop-color="#7AB547"/>
<stop offset="1" stop-color="white"/>
</linearGradient>
<linearGradient id="paint8_linear_1018_79" x1="239.264" y1="38.3734" x2="320.114" y2="206.585" gradientUnits="userSpaceOnUse">
<stop stop-color="#7AB547"/>
<stop offset="1" stop-color="white"/>
</linearGradient>
<linearGradient id="paint9_linear_1018_79" x1="228.645" y1="37.185" x2="314.409" y2="215.62" gradientUnits="userSpaceOnUse">
<stop stop-color="#7AB547"/>
<stop offset="1" stop-color="white"/>
</linearGradient>
<linearGradient id="paint10_linear_1018_79" x1="217.979" y1="35.8979" x2="308.751" y2="224.753" gradientUnits="userSpaceOnUse">
<stop stop-color="#7AB547"/>
<stop offset="1" stop-color="white"/>
</linearGradient>
<linearGradient id="paint11_linear_1018_79" x1="207.274" y1="34.5293" x2="303.133" y2="233.968" gradientUnits="userSpaceOnUse">
<stop stop-color="#7AB547"/>
<stop offset="1" stop-color="white"/>
</linearGradient>
<linearGradient id="paint12_linear_1018_79" x1="196.535" y1="33.0908" x2="297.548" y2="243.252" gradientUnits="userSpaceOnUse">
<stop stop-color="#7AB547"/>
<stop offset="1" stop-color="white"/>
</linearGradient>
<linearGradient id="paint13_linear_1018_79" x1="185.768" y1="31.591" x2="291.993" y2="252.596" gradientUnits="userSpaceOnUse">
<stop stop-color="#7AB547"/>
<stop offset="1" stop-color="white"/>
</linearGradient>
<linearGradient id="paint14_linear_1018_79" x1="174.975" y1="30.0413" x2="286.461" y2="261.993" gradientUnits="userSpaceOnUse">
<stop stop-color="#7AB547"/>
<stop offset="1" stop-color="white"/>
</linearGradient>
<linearGradient id="paint15_linear_1018_79" x1="164.161" y1="28.4469" x2="280.951" y2="271.433" gradientUnits="userSpaceOnUse">
<stop stop-color="#7AB547"/>
<stop offset="1" stop-color="white"/>
</linearGradient>
<linearGradient id="paint16_linear_1018_79" x1="153.329" y1="26.8134" x2="275.46" y2="280.912" gradientUnits="userSpaceOnUse">
<stop stop-color="#7AB547"/>
<stop offset="1" stop-color="white"/>
</linearGradient>
<linearGradient id="paint17_linear_1018_79" x1="142.48" y1="25.1468" x2="269.985" y2="290.425" gradientUnits="userSpaceOnUse">
<stop stop-color="#7AB547"/>
<stop offset="1" stop-color="white"/>
</linearGradient>
<linearGradient id="paint18_linear_1018_79" x1="131.617" y1="23.45" x2="264.524" y2="299.968" gradientUnits="userSpaceOnUse">
<stop stop-color="#7AB547"/>
<stop offset="1" stop-color="white"/>
</linearGradient>
<linearGradient id="paint19_linear_1018_79" x1="120.741" y1="21.7261" x2="259.076" y2="309.537" gradientUnits="userSpaceOnUse">
<stop stop-color="#7AB547"/>
<stop offset="1" stop-color="white"/>
</linearGradient>
<linearGradient id="paint20_linear_1018_79" x1="109.855" y1="19.9803" x2="253.639" y2="319.129" gradientUnits="userSpaceOnUse">
<stop stop-color="#7AB547"/>
<stop offset="1" stop-color="white"/>
</linearGradient>
<linearGradient id="paint21_linear_1018_79" x1="98.9586" y1="18.2126" x2="248.213" y2="328.742" gradientUnits="userSpaceOnUse">
<stop stop-color="#7AB547"/>
<stop offset="1" stop-color="white"/>
</linearGradient>
</defs>
</svg>
