<svg width="371" height="346" viewBox="0 0 371 346" fill="none" xmlns="http://www.w3.org/2000/svg">
<g opacity="0.9">
<path d="M246.801 143.179C256.189 162.711 279.65 170.927 299.203 161.529C318.755 152.132 326.995 128.679 317.607 109.146C308.218 89.6136 284.757 81.3977 265.205 90.7956C245.652 100.193 237.413 123.646 246.801 143.179Z" stroke="url(#paint0_linear_quote)" stroke-opacity="0.8" stroke-width="1.59792" stroke-miterlimit="10"/>
<path d="M238.89 146.981C248.854 167.713 273.756 176.434 294.509 166.459C315.261 156.484 324.007 131.591 314.042 110.859C304.077 90.1272 279.176 81.4067 258.423 91.3814C237.67 101.356 228.925 126.249 238.89 146.981Z" stroke="url(#paint1_linear_quote)" stroke-opacity="0.8" stroke-width="1.59792" stroke-miterlimit="10"/>
<path d="M230.658 150.938C241.284 173.045 267.839 182.344 289.969 171.708C312.099 161.071 321.426 134.526 310.8 112.418C300.174 90.3105 273.619 81.0116 251.489 91.6484C229.359 102.285 220.032 128.83 230.658 150.938Z" stroke="url(#paint2_linear_quote)" stroke-opacity="0.8" stroke-width="1.59792" stroke-miterlimit="10"/>
<path d="M222.163 155.021C233.52 178.651 261.902 188.59 285.556 177.221C309.209 165.852 319.177 137.48 307.82 113.85C296.462 90.2206 268.08 80.2813 244.427 91.6503C220.773 103.019 210.805 131.391 222.163 155.021Z" stroke="url(#paint3_linear_quote)" stroke-opacity="0.8" stroke-width="1.59792" stroke-miterlimit="10"/>
<path d="M213.45 159.208C225.597 184.479 255.95 195.109 281.246 182.95C306.543 170.792 317.203 140.449 305.057 115.178C292.91 89.9071 262.557 79.2774 237.26 91.4361C211.964 103.595 201.304 133.937 213.45 159.208Z" stroke="url(#paint4_linear_quote)" stroke-opacity="0.8" stroke-width="1.59792" stroke-miterlimit="10"/>
<path d="M204.561 163.481C217.544 190.491 249.986 201.852 277.023 188.856C304.06 175.861 315.454 143.431 302.472 116.421C289.49 89.4111 257.048 78.0502 230.01 91.0455C202.973 104.041 191.579 136.471 204.561 163.481Z" stroke="url(#paint5_linear_quote)" stroke-opacity="0.8" stroke-width="1.59792" stroke-miterlimit="10"/>
<path d="M195.527 167.823C209.383 196.652 244.01 208.778 272.868 194.908C301.726 181.038 313.887 146.423 300.031 117.594C286.174 88.7654 251.547 76.6392 222.689 90.5096C193.832 104.38 181.67 138.995 195.527 167.823Z" stroke="url(#paint6_linear_quote)" stroke-opacity="0.8" stroke-width="1.59792" stroke-miterlimit="10"/>
<path d="M186.372 172.223C201.135 202.937 238.026 215.856 268.771 201.079C299.516 186.302 312.472 149.424 297.71 118.71C282.947 87.9957 246.056 75.0766 215.311 89.8541C184.566 104.631 171.61 141.51 186.372 172.223Z" stroke="url(#paint7_linear_quote)" stroke-opacity="0.8" stroke-width="1.59792" stroke-miterlimit="10"/>
<path d="M177.12 176.67C192.815 209.323 232.035 223.058 264.721 207.347C297.407 191.637 311.182 152.431 295.487 119.777C279.793 87.1244 240.572 73.3896 207.886 89.1001C175.2 104.811 161.426 144.017 177.12 176.67Z" stroke="url(#paint8_linear_quote)" stroke-opacity="0.8" stroke-width="1.59792" stroke-miterlimit="10"/>
<path d="M167.786 181.157C184.434 215.794 226.038 230.364 260.711 213.699C295.383 197.033 309.995 155.444 293.346 120.807C276.698 86.169 235.094 71.5994 200.421 88.2647C165.749 104.93 151.137 146.519 167.786 181.157Z" stroke="url(#paint9_linear_quote)" stroke-opacity="0.8" stroke-width="1.59792" stroke-miterlimit="10"/>
<path d="M158.383 185.677C176.003 222.337 220.037 237.757 256.734 220.119C293.431 202.48 308.896 158.463 291.275 121.802C273.655 85.1419 229.621 69.7216 192.924 87.36C156.227 104.998 140.762 149.016 158.383 185.677Z" stroke="url(#paint10_linear_quote)" stroke-opacity="0.8" stroke-width="1.59792" stroke-miterlimit="10"/>
<path d="M148.921 190.224C167.529 228.939 214.03 245.223 252.784 226.597C291.538 207.97 307.869 161.485 289.261 122.77C270.653 84.0555 224.152 67.7709 185.398 86.3978C146.644 105.025 130.313 151.509 148.921 190.224Z" stroke="url(#paint11_linear_quote)" stroke-opacity="0.8" stroke-width="1.59792" stroke-miterlimit="10"/>
<path d="M139.41 194.795C159.019 235.592 208.02 252.752 248.858 233.123C289.696 213.495 306.905 164.511 287.297 123.714C267.688 82.918 218.687 65.758 177.849 85.3865C137.011 105.015 119.802 153.999 139.41 194.795Z" stroke="url(#paint12_linear_quote)" stroke-opacity="0.8" stroke-width="1.59792" stroke-miterlimit="10"/>
<path d="M129.858 199.386C150.479 242.288 202.008 260.333 244.953 239.692C287.898 219.051 305.995 167.539 285.375 124.638C264.755 81.7365 213.225 63.691 170.28 84.3322C127.335 104.973 109.238 156.485 129.858 199.386Z" stroke="url(#paint13_linear_quote)" stroke-opacity="0.8" stroke-width="1.59792" stroke-miterlimit="10"/>
<path d="M120.269 203.996C141.911 249.022 195.993 267.961 241.065 246.298C286.136 224.634 305.13 170.572 283.488 125.545C261.847 80.5189 207.765 61.5796 162.693 83.2431C117.621 104.907 98.6276 158.969 120.269 203.996Z" stroke="url(#paint14_linear_quote)" stroke-opacity="0.8" stroke-width="1.59792" stroke-miterlimit="10"/>
<path d="M110.649 208.62C133.32 255.788 189.975 275.628 237.191 252.934C284.407 230.24 304.305 173.605 281.633 126.437C258.962 79.2683 202.307 59.428 155.091 82.1222C107.875 104.816 87.9777 161.451 110.649 208.62Z" stroke="url(#paint15_linear_quote)" stroke-opacity="0.8" stroke-width="1.59792" stroke-miterlimit="10"/>
<path d="M101.002 213.256C124.71 262.582 183.956 283.329 233.332 259.597C282.707 235.865 303.515 176.64 279.807 127.315C256.099 77.9891 196.853 57.2416 147.477 80.9738C98.1015 104.706 77.2938 163.931 101.002 213.256Z" stroke="url(#paint16_linear_quote)" stroke-opacity="0.8" stroke-width="1.59792" stroke-miterlimit="10"/>
<path d="M91.3307 217.905C116.082 269.401 177.934 291.061 229.482 266.285C281.03 241.508 302.753 179.678 278.002 128.182C253.251 76.6864 191.398 55.026 139.85 79.8022C88.3024 104.578 66.5795 166.409 91.3307 217.905Z" stroke="url(#paint17_linear_quote)" stroke-opacity="0.8" stroke-width="1.59792" stroke-miterlimit="10"/>
<path d="M81.6383 222.563C107.438 276.241 171.911 298.819 225.643 272.993C279.375 247.167 302.019 182.717 276.219 129.039C250.419 75.3616 185.946 52.7835 132.214 78.6096C78.4819 104.436 55.8384 168.886 81.6383 222.563Z" stroke="url(#paint18_linear_quote)" stroke-opacity="0.8" stroke-width="1.59792" stroke-miterlimit="10"/>
<path d="M71.9283 227.23C98.7818 283.1 165.888 306.6 221.814 279.719C277.74 252.839 301.308 185.757 274.455 129.887C247.601 74.0173 180.495 50.5171 124.569 77.3978C68.6428 104.278 45.0749 171.361 71.9283 227.23Z" stroke="url(#paint19_linear_quote)" stroke-opacity="0.8" stroke-width="1.59792" stroke-miterlimit="10"/>
<path d="M62.2014 231.905C90.1128 289.976 159.862 314.402 217.992 286.462C276.121 258.523 300.618 188.798 272.706 130.727C244.795 72.6567 175.045 48.2308 116.916 76.1704C58.7867 104.11 34.2901 173.835 62.2014 231.905Z" stroke="url(#paint20_linear_quote)" stroke-opacity="0.8" stroke-width="1.59792" stroke-miterlimit="10"/>
<path d="M52.4604 236.587C81.4335 296.867 153.837 322.222 214.177 293.22C274.518 264.217 299.946 191.84 270.973 131.56C242 71.2807 169.597 45.9254 109.256 74.9278C48.9155 103.93 23.4872 176.308 52.4604 236.587Z" stroke="url(#paint21_linear_quote)" stroke-opacity="0.8" stroke-width="1.59792" stroke-miterlimit="10"/>
</g>
<defs>
<linearGradient id="paint0_linear_quote" x1="265.205" y1="90.7956" x2="299.203" y2="161.529" gradientUnits="userSpaceOnUse"><stop stop-color="#7AB547"/><stop offset="1" stop-color="#201F23"/></linearGradient>
<linearGradient id="paint1_linear_quote" x1="258.423" y1="91.3814" x2="294.509" y2="166.459" gradientUnits="userSpaceOnUse"><stop stop-color="#7AB547"/><stop offset="1" stop-color="#201F23"/></linearGradient>
<linearGradient id="paint2_linear_quote" x1="251.489" y1="91.6484" x2="289.969" y2="171.708" gradientUnits="userSpaceOnUse"><stop stop-color="#7AB547"/><stop offset="1" stop-color="#201F23"/></linearGradient>
<linearGradient id="paint3_linear_quote" x1="244.427" y1="91.6503" x2="285.556" y2="177.221" gradientUnits="userSpaceOnUse"><stop stop-color="#7AB547"/><stop offset="1" stop-color="#201F23"/></linearGradient>
<linearGradient id="paint4_linear_quote" x1="237.26" y1="91.4361" x2="281.246" y2="182.95" gradientUnits="userSpaceOnUse"><stop stop-color="#7AB547"/><stop offset="1" stop-color="#201F23"/></linearGradient>
<linearGradient id="paint5_linear_quote" x1="230.01" y1="91.0455" x2="277.023" y2="188.856" gradientUnits="userSpaceOnUse"><stop stop-color="#7AB547"/><stop offset="1" stop-color="#201F23"/></linearGradient>
<linearGradient id="paint6_linear_quote" x1="222.689" y1="90.5096" x2="272.868" y2="194.908" gradientUnits="userSpaceOnUse"><stop stop-color="#7AB547"/><stop offset="1" stop-color="#201F23"/></linearGradient>
<linearGradient id="paint7_linear_quote" x1="215.311" y1="89.8541" x2="268.771" y2="201.079" gradientUnits="userSpaceOnUse"><stop stop-color="#7AB547"/><stop offset="1" stop-color="#201F23"/></linearGradient>
<linearGradient id="paint8_linear_quote" x1="207.886" y1="89.1001" x2="264.721" y2="207.347" gradientUnits="userSpaceOnUse"><stop stop-color="#7AB547"/><stop offset="1" stop-color="#201F23"/></linearGradient>
<linearGradient id="paint9_linear_quote" x1="200.421" y1="88.2647" x2="260.711" y2="213.699" gradientUnits="userSpaceOnUse"><stop stop-color="#7AB547"/><stop offset="1" stop-color="#201F23"/></linearGradient>
<linearGradient id="paint10_linear_quote" x1="192.924" y1="87.36" x2="256.734" y2="220.119" gradientUnits="userSpaceOnUse"><stop stop-color="#7AB547"/><stop offset="1" stop-color="#201F23"/></linearGradient>
<linearGradient id="paint11_linear_quote" x1="185.398" y1="86.3978" x2="252.784" y2="226.597" gradientUnits="userSpaceOnUse"><stop stop-color="#7AB547"/><stop offset="1" stop-color="#201F23"/></linearGradient>
<linearGradient id="paint12_linear_quote" x1="177.849" y1="85.3865" x2="248.858" y2="233.123" gradientUnits="userSpaceOnUse"><stop stop-color="#7AB547"/><stop offset="1" stop-color="#201F23"/></linearGradient>
<linearGradient id="paint13_linear_quote" x1="170.28" y1="84.3322" x2="244.953" y2="239.692" gradientUnits="userSpaceOnUse"><stop stop-color="#7AB547"/><stop offset="1" stop-color="#201F23"/></linearGradient>
<linearGradient id="paint14_linear_quote" x1="162.693" y1="83.2431" x2="241.065" y2="246.298" gradientUnits="userSpaceOnUse"><stop stop-color="#7AB547"/><stop offset="1" stop-color="#201F23"/></linearGradient>
<linearGradient id="paint15_linear_quote" x1="155.091" y1="82.1222" x2="237.191" y2="252.934" gradientUnits="userSpaceOnUse"><stop stop-color="#7AB547"/><stop offset="1" stop-color="#201F23"/></linearGradient>
<linearGradient id="paint16_linear_quote" x1="147.477" y1="80.9738" x2="233.332" y2="259.597" gradientUnits="userSpaceOnUse"><stop stop-color="#7AB547"/><stop offset="1" stop-color="#201F23"/></linearGradient>
<linearGradient id="paint17_linear_quote" x1="139.85" y1="79.8022" x2="229.482" y2="266.285" gradientUnits="userSpaceOnUse"><stop stop-color="#7AB547"/><stop offset="1" stop-color="#201F23"/></linearGradient>
<linearGradient id="paint18_linear_quote" x1="132.214" y1="78.6096" x2="225.643" y2="272.993" gradientUnits="userSpaceOnUse"><stop stop-color="#7AB547"/><stop offset="1" stop-color="#201F23"/></linearGradient>
<linearGradient id="paint19_linear_quote" x1="124.569" y1="77.3977" x2="221.814" y2="279.719" gradientUnits="userSpaceOnUse"><stop stop-color="#7AB547"/><stop offset="1" stop-color="#201F23"/></linearGradient>
<linearGradient id="paint20_linear_quote" x1="116.916" y1="76.1704" x2="217.992" y2="286.462" gradientUnits="userSpaceOnUse"><stop stop-color="#7AB547"/><stop offset="1" stop-color="#201F23"/></linearGradient>
<linearGradient id="paint21_linear_quote" x1="109.256" y1="74.9278" x2="214.177" y2="293.22" gradientUnits="userSpaceOnUse"><stop stop-color="#7AB547"/><stop offset="1" stop-color="#201F23"/></linearGradient>
</defs>
</svg>
