<svg width="324" height="393" viewBox="0 0 324.116 393.228" fill="none" xmlns="http://www.w3.org/2000/svg">
<g id="Group" opacity="0.9">
<path id="Vector" d="M162.058 105.504C190.869 105.504 214.226 82.1242 214.226 53.2833C214.226 24.4424 190.869 1.06218 162.058 1.06218C133.246 1.06218 109.89 24.4424 109.89 53.2833C109.89 82.1242 133.246 105.504 162.058 105.504Z" stroke="url(#paint_faq0_linear_0_10)" stroke-opacity="0.8" stroke-width="2.12436" stroke-miterlimit="10"/>
<path id="Vector_2" d="M162.057 117.173C192.638 117.173 217.429 92.3579 217.429 61.7465C217.429 31.1352 192.638 6.31975 162.057 6.31975C131.477 6.31975 106.686 31.1352 106.686 61.7465C106.686 92.3579 131.477 117.173 162.057 117.173Z" stroke="url(#paint_faq1_linear_0_10)" stroke-opacity="0.8" stroke-width="2.12436" stroke-miterlimit="10"/>
<path id="Vector_3" d="M162.058 129.315C194.668 129.315 221.104 102.852 221.104 70.209C221.104 37.5655 194.668 11.1028 162.058 11.1028C129.448 11.1028 103.012 37.5655 103.012 70.209C103.012 102.852 129.448 129.315 162.058 129.315Z" stroke="url(#paint_faq2_linear_0_10)" stroke-opacity="0.8" stroke-width="2.12436" stroke-miterlimit="10"/>
<path id="Vector_4" d="M162.058 141.847C196.913 141.847 225.169 113.563 225.169 78.6726C225.169 43.7824 196.913 15.4983 162.058 15.4983C127.203 15.4983 98.9474 43.7824 98.9474 78.6726C98.9474 113.563 127.203 141.847 162.058 141.847Z" stroke="url(#paint_faq3_linear_0_10)" stroke-opacity="0.8" stroke-width="2.12436" stroke-miterlimit="10"/>
<path id="Vector_5" d="M162.059 154.698C199.335 154.698 229.553 124.449 229.553 87.1358C229.553 49.8222 199.335 19.5736 162.059 19.5736C124.783 19.5736 94.5643 49.8222 94.5643 87.1358C94.5643 124.449 124.783 154.698 162.059 154.698Z" stroke="url(#paint_faq4_linear_0_10)" stroke-opacity="0.8" stroke-width="2.12436" stroke-miterlimit="10"/>
<path id="Vector_6" d="M162.059 167.809C201.899 167.809 234.197 135.479 234.197 95.5977C234.197 55.7165 201.899 23.3863 162.059 23.3863C122.218 23.3863 89.9204 55.7165 89.9204 95.5977C89.9204 135.479 122.218 167.809 162.059 167.809Z" stroke="url(#paint_faq5_linear_0_10)" stroke-opacity="0.8" stroke-width="2.12436" stroke-miterlimit="10"/>
<path id="Vector_7" d="M162.058 181.135C204.582 181.135 239.055 146.628 239.055 104.061C239.055 61.4944 204.582 26.9871 162.058 26.9871C119.534 26.9871 85.0619 61.4944 85.0619 104.061C85.0619 146.628 119.534 181.135 162.058 181.135Z" stroke="url(#paint_faq6_linear_0_10)" stroke-opacity="0.8" stroke-width="2.12436" stroke-miterlimit="10"/>
<path id="Vector_8" d="M162.058 194.639C207.363 194.639 244.089 157.875 244.089 112.525C244.089 67.1743 207.363 30.4106 162.058 30.4106C116.754 30.4106 80.0269 67.1743 80.0269 112.525C80.0269 157.875 116.754 194.639 162.058 194.639Z" stroke="url(#paint_faq7_linear_0_10)" stroke-opacity="0.8" stroke-width="2.12436" stroke-miterlimit="10"/>
<path id="Vector_9" d="M162.058 208.286C210.223 208.286 249.269 169.201 249.269 120.988C249.269 72.7738 210.223 33.6889 162.058 33.6889C113.893 33.6889 74.8479 72.7738 74.8479 120.988C74.8479 169.201 113.893 208.286 162.058 208.286Z" stroke="url(#paint_faq8_linear_0_10)" stroke-opacity="0.8" stroke-width="2.12436" stroke-miterlimit="10"/>
<path id="Vector_10" d="M162.058 222.055C213.151 222.055 254.569 180.595 254.569 129.451C254.569 78.3072 213.151 36.8469 162.058 36.8469C110.966 36.8469 69.5476 78.3072 69.5476 129.451C69.5476 180.595 110.966 222.055 162.058 222.055Z" stroke="url(#paint_faq9_linear_0_10)" stroke-opacity="0.8" stroke-width="2.12436" stroke-miterlimit="10"/>
<path id="Vector_11" d="M162.058 235.925C216.134 235.925 259.971 192.044 259.971 137.914C259.971 83.7832 216.134 39.9018 162.058 39.9018C107.982 39.9018 64.1452 83.7832 64.1452 137.914C64.1452 192.044 107.982 235.925 162.058 235.925Z" stroke="url(#paint_faq10_linear_0_10)" stroke-opacity="0.8" stroke-width="2.12436" stroke-miterlimit="10"/>
<path id="Vector_12" d="M162.058 249.882C219.165 249.882 265.458 203.541 265.458 146.378C265.458 89.2137 219.165 42.8732 162.058 42.8732C104.952 42.8732 58.6579 89.2137 58.6579 146.378C58.6579 203.541 104.952 249.882 162.058 249.882Z" stroke="url(#paint_faq11_linear_0_10)" stroke-opacity="0.8" stroke-width="2.12436" stroke-miterlimit="10"/>
<path id="Vector_13" d="M162.059 263.91C222.235 263.91 271.018 215.078 271.018 154.84C271.018 94.6021 222.235 45.7697 162.059 45.7697C101.882 45.7697 53.0989 94.6021 53.0989 154.84C53.0989 215.078 101.882 263.91 162.059 263.91Z" stroke="url(#paint_faq12_linear_0_10)" stroke-opacity="0.8" stroke-width="2.12436" stroke-miterlimit="10"/>
<path id="Vector_14" d="M162.058 278C225.34 278 276.64 226.648 276.64 163.302C276.64 99.9565 225.34 48.6047 162.058 48.6047C98.7763 48.6047 47.4763 99.9565 47.4763 163.302C47.4763 226.648 98.7763 278 162.058 278Z" stroke="url(#paint_faq13_linear_0_10)" stroke-opacity="0.8" stroke-width="2.12436" stroke-miterlimit="10"/>
<path id="Vector_15" d="M162.058 292.145C228.475 292.145 282.315 238.25 282.315 171.766C282.315 105.283 228.475 51.3883 162.058 51.3883C95.6423 51.3883 41.8013 105.283 41.8013 171.766C41.8013 238.25 95.6423 292.145 162.058 292.145Z" stroke="url(#paint_faq14_linear_0_10)" stroke-opacity="0.8" stroke-width="2.12436" stroke-miterlimit="10"/>
<path id="Vector_16" d="M162.058 306.335C231.634 306.335 288.036 249.876 288.036 180.23C288.036 110.584 231.634 54.1242 162.058 54.1242C92.4824 54.1242 36.0801 110.584 36.0801 180.23C36.0801 249.876 92.4824 306.335 162.058 306.335Z" stroke="url(#paint_faq15_linear_0_10)" stroke-opacity="0.8" stroke-width="2.12436" stroke-miterlimit="10"/>
<path id="Vector_17" d="M162.058 320.565C234.816 320.565 293.797 261.523 293.797 188.692C293.797 115.86 234.816 56.8186 162.058 56.8186C89.3005 56.8186 30.3188 115.86 30.3188 188.692C30.3188 261.523 89.3005 320.565 162.058 320.565Z" stroke="url(#paint_faq16_linear_0_10)" stroke-opacity="0.8" stroke-width="2.12436" stroke-miterlimit="10"/>
<path id="Vector_18" d="M162.058 334.831C238.017 334.831 299.594 273.192 299.594 197.156C299.594 121.12 238.017 59.4814 162.058 59.4814C86.0991 59.4814 24.5223 121.12 24.5223 197.156C24.5223 273.192 86.0991 334.831 162.058 334.831Z" stroke="url(#paint_faq17_linear_0_10)" stroke-opacity="0.8" stroke-width="2.12436" stroke-miterlimit="10"/>
<path id="Vector_19" d="M162.058 349.127C241.235 349.127 305.421 284.876 305.421 205.619C305.421 126.362 241.235 62.1107 162.058 62.1107C82.8814 62.1107 18.6957 126.362 18.6957 205.619C18.6957 284.876 82.8814 349.127 162.058 349.127Z" stroke="url(#paint_faq18_linear_0_10)" stroke-opacity="0.8" stroke-width="2.12436" stroke-miterlimit="10"/>
<path id="Vector_20" d="M162.058 363.45C244.469 363.45 311.276 296.575 311.276 214.081C311.276 131.587 244.469 64.713 162.058 64.713C79.6476 64.713 12.8407 131.587 12.8407 214.081C12.8407 296.575 79.6476 363.45 162.058 363.45Z" stroke="url(#paint_faq19_linear_0_10)" stroke-opacity="0.8" stroke-width="2.12436" stroke-miterlimit="10"/>
<path id="Vector_21" d="M162.058 377.798C247.715 377.798 317.153 308.289 317.153 222.545C317.153 136.801 247.715 67.2922 162.058 67.2922C76.4009 67.2922 6.96228 136.801 6.96228 222.545C6.96228 308.289 76.4009 377.798 162.058 377.798Z" stroke="url(#paint_faq20_linear_0_10)" stroke-opacity="0.8" stroke-width="2.12436" stroke-miterlimit="10"/>
<path id="Vector_22" d="M162.058 392.166C250.974 392.166 323.054 320.013 323.054 231.008C323.054 142.002 250.974 69.849 162.058 69.849C73.1426 69.849 1.06218 142.002 1.06218 231.008C1.06218 320.013 73.1426 392.166 162.058 392.166Z" stroke="url(#paint_faq21_linear_0_10)" stroke-opacity="0.8" stroke-width="2.12436" stroke-miterlimit="10"/>
</g>
<defs>
<linearGradient id="paint_faq0_linear_0_10" x1="109.89" y1="53.2833" x2="214.226" y2="53.2833" gradientUnits="userSpaceOnUse">
<stop stop-color="#7AB547"/>
<stop offset="1" stop-color="white"/>
</linearGradient>
<linearGradient id="paint_faq1_linear_0_10" x1="106.686" y1="61.7465" x2="217.429" y2="61.7465" gradientUnits="userSpaceOnUse">
<stop stop-color="#7AB547"/>
<stop offset="1" stop-color="white"/>
</linearGradient>
<linearGradient id="paint_faq2_linear_0_10" x1="103.012" y1="70.209" x2="221.104" y2="70.209" gradientUnits="userSpaceOnUse">
<stop stop-color="#7AB547"/>
<stop offset="1" stop-color="white"/>
</linearGradient>
<linearGradient id="paint_faq3_linear_0_10" x1="98.9474" y1="78.6726" x2="225.169" y2="78.6726" gradientUnits="userSpaceOnUse">
<stop stop-color="#7AB547"/>
<stop offset="1" stop-color="white"/>
</linearGradient>
<linearGradient id="paint_faq4_linear_0_10" x1="94.5643" y1="87.1358" x2="229.553" y2="87.1358" gradientUnits="userSpaceOnUse">
<stop stop-color="#7AB547"/>
<stop offset="1" stop-color="white"/>
</linearGradient>
<linearGradient id="paint_faq5_linear_0_10" x1="89.9204" y1="95.5977" x2="234.197" y2="95.5977" gradientUnits="userSpaceOnUse">
<stop stop-color="#7AB547"/>
<stop offset="1" stop-color="white"/>
</linearGradient>
<linearGradient id="paint_faq6_linear_0_10" x1="85.0619" y1="104.061" x2="239.055" y2="104.061" gradientUnits="userSpaceOnUse">
<stop stop-color="#7AB547"/>
<stop offset="1" stop-color="white"/>
</linearGradient>
<linearGradient id="paint_faq7_linear_0_10" x1="80.0269" y1="112.525" x2="244.089" y2="112.525" gradientUnits="userSpaceOnUse">
<stop stop-color="#7AB547"/>
<stop offset="1" stop-color="white"/>
</linearGradient>
<linearGradient id="paint_faq8_linear_0_10" x1="74.8479" y1="120.988" x2="249.269" y2="120.988" gradientUnits="userSpaceOnUse">
<stop stop-color="#7AB547"/>
<stop offset="1" stop-color="white"/>
</linearGradient>
<linearGradient id="paint_faq9_linear_0_10" x1="69.5476" y1="129.451" x2="254.569" y2="129.451" gradientUnits="userSpaceOnUse">
<stop stop-color="#7AB547"/>
<stop offset="1" stop-color="white"/>
</linearGradient>
<linearGradient id="paint_faq10_linear_0_10" x1="64.1452" y1="137.914" x2="259.971" y2="137.914" gradientUnits="userSpaceOnUse">
<stop stop-color="#7AB547"/>
<stop offset="1" stop-color="white"/>
</linearGradient>
<linearGradient id="paint_faq11_linear_0_10" x1="58.6579" y1="146.378" x2="265.458" y2="146.378" gradientUnits="userSpaceOnUse">
<stop stop-color="#7AB547"/>
<stop offset="1" stop-color="white"/>
</linearGradient>
<linearGradient id="paint_faq12_linear_0_10" x1="53.0989" y1="154.84" x2="271.018" y2="154.84" gradientUnits="userSpaceOnUse">
<stop stop-color="#7AB547"/>
<stop offset="1" stop-color="white"/>
</linearGradient>
<linearGradient id="paint_faq13_linear_0_10" x1="47.4763" y1="163.302" x2="276.64" y2="163.302" gradientUnits="userSpaceOnUse">
<stop stop-color="#7AB547"/>
<stop offset="1" stop-color="white"/>
</linearGradient>
<linearGradient id="paint_faq14_linear_0_10" x1="41.8013" y1="171.766" x2="282.315" y2="171.766" gradientUnits="userSpaceOnUse">
<stop stop-color="#7AB547"/>
<stop offset="1" stop-color="white"/>
</linearGradient>
<linearGradient id="paint_faq15_linear_0_10" x1="36.0801" y1="180.23" x2="288.036" y2="180.23" gradientUnits="userSpaceOnUse">
<stop stop-color="#7AB547"/>
<stop offset="1" stop-color="white"/>
</linearGradient>
<linearGradient id="paint_faq16_linear_0_10" x1="30.3188" y1="188.692" x2="293.797" y2="188.692" gradientUnits="userSpaceOnUse">
<stop stop-color="#7AB547"/>
<stop offset="1" stop-color="white"/>
</linearGradient>
<linearGradient id="paint_faq17_linear_0_10" x1="24.5223" y1="197.156" x2="299.594" y2="197.156" gradientUnits="userSpaceOnUse">
<stop stop-color="#7AB547"/>
<stop offset="1" stop-color="white"/>
</linearGradient>
<linearGradient id="paint_faq18_linear_0_10" x1="18.6957" y1="205.619" x2="305.421" y2="205.619" gradientUnits="userSpaceOnUse">
<stop stop-color="#7AB547"/>
<stop offset="1" stop-color="white"/>
</linearGradient>
<linearGradient id="paint_faq19_linear_0_10" x1="12.8407" y1="214.081" x2="311.276" y2="214.081" gradientUnits="userSpaceOnUse">
<stop stop-color="#7AB547"/>
<stop offset="1" stop-color="white"/>
</linearGradient>
<linearGradient id="paint_faq20_linear_0_10" x1="6.96228" y1="222.545" x2="317.153" y2="222.545" gradientUnits="userSpaceOnUse">
<stop stop-color="#7AB547"/>
<stop offset="1" stop-color="white"/>
</linearGradient>
<linearGradient id="paint_faq21_linear_0_10" x1="1.06218" y1="231.008" x2="323.054" y2="231.008" gradientUnits="userSpaceOnUse">
<stop stop-color="#7AB547"/>
<stop offset="1" stop-color="white"/>
</linearGradient>
</defs>
</svg>
