<svg width="244" height="296" viewBox="0 0 243.796 295.781" fill="none" xmlns="http://www.w3.org/2000/svg">
<g id="Group" opacity="0.9">
<path id="Vector" d="M121.898 79.359C143.57 79.359 161.138 61.7727 161.138 40.079C161.138 18.3852 143.57 0.798959 121.898 0.798959C100.227 0.798959 82.6581 18.3852 82.6581 40.079C82.6581 61.7727 100.227 79.359 121.898 79.359Z" stroke="url(#paint0_linear_3069_384)" stroke-opacity="0.8" stroke-width="1.59792" stroke-miterlimit="10"/>
<path id="Vector_2" d="M121.898 88.1364C144.901 88.1364 163.548 69.4706 163.548 46.4451C163.548 23.4197 144.901 4.75387 121.898 4.75387C98.8956 4.75387 80.2484 23.4197 80.2484 46.4451C80.2484 69.4706 98.8956 88.1364 121.898 88.1364Z" stroke="url(#paint1_linear_3069_384)" stroke-opacity="0.8" stroke-width="1.59792" stroke-miterlimit="10"/>
<path id="Vector_3" d="M121.898 97.2691C146.427 97.2691 166.312 77.3641 166.312 52.8102C166.312 28.2562 146.427 8.35133 121.898 8.35133C97.3697 8.35133 77.4852 28.2562 77.4852 52.8102C77.4852 77.3641 97.3697 97.2691 121.898 97.2691Z" stroke="url(#paint2_linear_3069_384)" stroke-opacity="0.8" stroke-width="1.59792" stroke-miterlimit="10"/>
<path id="Vector_4" d="M121.898 106.695C148.116 106.695 169.369 85.4205 169.369 59.1765C169.369 32.9326 148.116 11.6576 121.898 11.6576C95.6809 11.6576 74.4274 32.9326 74.4274 59.1765C74.4274 85.4205 95.6809 106.695 121.898 106.695Z" stroke="url(#paint3_linear_3069_384)" stroke-opacity="0.8" stroke-width="1.59792" stroke-miterlimit="10"/>
<path id="Vector_5" d="M121.898 116.362C149.937 116.362 172.666 93.6093 172.666 65.5425C172.666 37.4757 149.937 14.7231 121.898 14.7231C93.8596 14.7231 71.1299 37.4757 71.1299 65.5425C71.1299 93.6093 93.8596 116.362 121.898 116.362Z" stroke="url(#paint4_linear_3069_384)" stroke-opacity="0.8" stroke-width="1.59792" stroke-miterlimit="10"/>
<path id="Vector_6" d="M121.898 126.224C151.866 126.224 176.16 101.906 176.16 71.9077C176.16 41.9096 151.866 17.5913 121.898 17.5913C91.9306 17.5913 67.637 41.9096 67.637 71.9077C67.637 101.906 91.9306 126.224 121.898 126.224Z" stroke="url(#paint5_linear_3069_384)" stroke-opacity="0.8" stroke-width="1.59792" stroke-miterlimit="10"/>
<path id="Vector_7" d="M121.898 136.248C153.884 136.248 179.814 110.292 179.814 78.274C179.814 46.2558 153.884 20.2999 121.898 20.2999C89.9122 20.2999 63.9825 46.2558 63.9825 78.274C63.9825 110.292 89.9122 136.248 121.898 136.248Z" stroke="url(#paint6_linear_3069_384)" stroke-opacity="0.8" stroke-width="1.59792" stroke-miterlimit="10"/>
<path id="Vector_8" d="M121.898 146.405C155.976 146.405 183.601 118.752 183.601 84.64C183.601 50.5281 155.976 22.8749 121.898 22.8749C87.8207 22.8749 60.1954 50.5281 60.1954 84.64C60.1954 118.752 87.8207 146.405 121.898 146.405Z" stroke="url(#paint7_linear_3069_384)" stroke-opacity="0.8" stroke-width="1.59792" stroke-miterlimit="10"/>
<path id="Vector_9" d="M121.898 156.67C158.127 156.67 187.496 127.271 187.496 91.0054C187.496 54.7397 158.127 25.3406 121.898 25.3406C85.6689 25.3406 56.2994 54.7397 56.2994 91.0054C56.2994 127.271 85.6689 156.67 121.898 156.67Z" stroke="url(#paint8_linear_3069_384)" stroke-opacity="0.8" stroke-width="1.59792" stroke-miterlimit="10"/>
<path id="Vector_10" d="M121.898 167.027C160.329 167.027 191.483 135.841 191.483 97.3717C191.483 58.902 160.329 27.7161 121.898 27.7161C83.4671 27.7161 52.3126 58.902 52.3126 97.3717C52.3126 135.841 83.4671 167.027 121.898 167.027Z" stroke="url(#paint9_linear_3069_384)" stroke-opacity="0.8" stroke-width="1.59792" stroke-miterlimit="10"/>
<path id="Vector_11" d="M121.898 177.46C162.573 177.46 195.547 144.453 195.547 103.737C195.547 63.0208 162.573 30.0138 121.898 30.0138C81.223 30.0138 48.2493 63.0208 48.2493 103.737C48.2493 144.453 81.223 177.46 121.898 177.46Z" stroke="url(#paint10_linear_3069_384)" stroke-opacity="0.8" stroke-width="1.59792" stroke-miterlimit="10"/>
<path id="Vector_12" d="M121.898 187.958C164.853 187.958 199.674 153.101 199.674 110.103C199.674 67.1053 164.853 32.2486 121.898 32.2486C78.9436 32.2486 44.122 67.1053 44.122 110.103C44.122 153.101 78.9436 187.958 121.898 187.958Z" stroke="url(#paint11_linear_3069_384)" stroke-opacity="0.8" stroke-width="1.59792" stroke-miterlimit="10"/>
<path id="Vector_13" d="M121.898 198.51C167.162 198.51 203.856 161.779 203.856 116.469C203.856 71.159 167.162 34.4279 121.898 34.4279C76.634 34.4279 39.9401 71.159 39.9401 116.469C39.9401 161.779 76.634 198.51 121.898 198.51Z" stroke="url(#paint12_linear_3069_384)" stroke-opacity="0.8" stroke-width="1.59792" stroke-miterlimit="10"/>
<path id="Vector_14" d="M121.898 209.108C169.498 209.108 208.085 170.482 208.085 122.834C208.085 75.1862 169.498 36.56 121.898 36.56C74.2983 36.56 35.7111 75.1862 35.7111 122.834C35.7111 170.482 74.2983 209.108 121.898 209.108Z" stroke="url(#paint13_linear_3069_384)" stroke-opacity="0.8" stroke-width="1.59792" stroke-miterlimit="10"/>
<path id="Vector_15" d="M121.898 219.747C171.856 219.747 212.354 179.208 212.354 129.201C212.354 79.1929 171.856 38.6537 121.898 38.6537C71.9409 38.6537 31.4425 79.1929 31.4425 129.201C31.4425 179.208 71.9409 219.747 121.898 219.747Z" stroke="url(#paint14_linear_3069_384)" stroke-opacity="0.8" stroke-width="1.59792" stroke-miterlimit="10"/>
<path id="Vector_16" d="M121.898 230.421C174.232 230.421 216.657 187.953 216.657 135.566C216.657 83.1796 174.232 40.7117 121.898 40.7117C69.5641 40.7117 27.1391 83.1796 27.1391 135.566C27.1391 187.953 69.5641 230.421 121.898 230.421Z" stroke="url(#paint15_linear_3069_384)" stroke-opacity="0.8" stroke-width="1.59792" stroke-miterlimit="10"/>
<path id="Vector_17" d="M121.898 241.125C176.625 241.125 220.99 196.714 220.99 141.932C220.99 87.1487 176.625 42.7385 121.898 42.7385C67.1707 42.7385 22.8055 87.1487 22.8055 141.932C22.8055 196.714 67.1707 241.125 121.898 241.125Z" stroke="url(#paint16_linear_3069_384)" stroke-opacity="0.8" stroke-width="1.59792" stroke-miterlimit="10"/>
<path id="Vector_18" d="M121.898 251.855C179.033 251.855 225.35 205.491 225.35 148.298C225.35 91.1051 179.033 44.741 121.898 44.741C64.7629 44.741 18.4457 91.1051 18.4457 148.298C18.4457 205.491 64.7629 251.855 121.898 251.855Z" stroke="url(#paint17_linear_3069_384)" stroke-opacity="0.8" stroke-width="1.59792" stroke-miterlimit="10"/>
<path id="Vector_19" d="M121.898 262.609C181.454 262.609 229.734 214.28 229.734 154.664C229.734 95.0477 181.454 46.7191 121.898 46.7191C62.3422 46.7191 14.0626 95.0477 14.0626 154.664C14.0626 214.28 62.3422 262.609 121.898 262.609Z" stroke="url(#paint18_linear_3069_384)" stroke-opacity="0.8" stroke-width="1.59792" stroke-miterlimit="10"/>
<path id="Vector_20" d="M121.898 273.382C183.886 273.382 234.137 223.08 234.137 161.029C234.137 98.9787 183.886 48.6766 121.898 48.6766C59.9099 48.6766 9.65862 98.9787 9.65862 161.029C9.65862 223.08 59.9099 273.382 121.898 273.382Z" stroke="url(#paint19_linear_3069_384)" stroke-opacity="0.8" stroke-width="1.59792" stroke-miterlimit="10"/>
<path id="Vector_21" d="M121.898 284.174C186.328 284.174 238.559 231.891 238.559 167.395C238.559 102.9 186.328 50.6162 121.898 50.6162C57.468 50.6162 5.23718 102.9 5.23718 167.395C5.23718 231.891 57.468 284.174 121.898 284.174Z" stroke="url(#paint20_linear_3069_384)" stroke-opacity="0.8" stroke-width="1.59792" stroke-miterlimit="10"/>
<path id="Vector_22" d="M121.898 294.982C188.779 294.982 242.997 240.709 242.997 173.761C242.997 106.812 188.779 52.5395 121.898 52.5395C55.0168 52.5395 0.798959 106.812 0.798959 173.761C0.798959 240.709 55.0168 294.982 121.898 294.982Z" stroke="url(#paint21_linear_3069_384)" stroke-opacity="0.8" stroke-width="1.59792" stroke-miterlimit="10"/>
</g>
<defs>
<linearGradient id="paint0_linear_3069_384" x1="82.6581" y1="40.079" x2="161.138" y2="40.079" gradientUnits="userSpaceOnUse">
<stop stop-color="#7AB547"/>
<stop offset="1" stop-color="white"/>
</linearGradient>
<linearGradient id="paint1_linear_3069_384" x1="80.2484" y1="46.4451" x2="163.548" y2="46.4451" gradientUnits="userSpaceOnUse">
<stop stop-color="#7AB547"/>
<stop offset="1" stop-color="white"/>
</linearGradient>
<linearGradient id="paint2_linear_3069_384" x1="77.4852" y1="52.8102" x2="166.312" y2="52.8102" gradientUnits="userSpaceOnUse">
<stop stop-color="#7AB547"/>
<stop offset="1" stop-color="white"/>
</linearGradient>
<linearGradient id="paint3_linear_3069_384" x1="74.4274" y1="59.1765" x2="169.369" y2="59.1765" gradientUnits="userSpaceOnUse">
<stop stop-color="#7AB547"/>
<stop offset="1" stop-color="white"/>
</linearGradient>
<linearGradient id="paint4_linear_3069_384" x1="71.1299" y1="65.5425" x2="172.666" y2="65.5425" gradientUnits="userSpaceOnUse">
<stop stop-color="#7AB547"/>
<stop offset="1" stop-color="white"/>
</linearGradient>
<linearGradient id="paint5_linear_3069_384" x1="67.637" y1="71.9077" x2="176.16" y2="71.9077" gradientUnits="userSpaceOnUse">
<stop stop-color="#7AB547"/>
<stop offset="1" stop-color="white"/>
</linearGradient>
<linearGradient id="paint6_linear_3069_384" x1="63.9825" y1="78.274" x2="179.814" y2="78.274" gradientUnits="userSpaceOnUse">
<stop stop-color="#7AB547"/>
<stop offset="1" stop-color="white"/>
</linearGradient>
<linearGradient id="paint7_linear_3069_384" x1="60.1954" y1="84.64" x2="183.601" y2="84.64" gradientUnits="userSpaceOnUse">
<stop stop-color="#7AB547"/>
<stop offset="1" stop-color="white"/>
</linearGradient>
<linearGradient id="paint8_linear_3069_384" x1="56.2994" y1="91.0054" x2="187.496" y2="91.0054" gradientUnits="userSpaceOnUse">
<stop stop-color="#7AB547"/>
<stop offset="1" stop-color="white"/>
</linearGradient>
<linearGradient id="paint9_linear_3069_384" x1="52.3126" y1="97.3717" x2="191.483" y2="97.3717" gradientUnits="userSpaceOnUse">
<stop stop-color="#7AB547"/>
<stop offset="1" stop-color="white"/>
</linearGradient>
<linearGradient id="paint10_linear_3069_384" x1="48.2493" y1="103.737" x2="195.547" y2="103.737" gradientUnits="userSpaceOnUse">
<stop stop-color="#7AB547"/>
<stop offset="1" stop-color="white"/>
</linearGradient>
<linearGradient id="paint11_linear_3069_384" x1="44.122" y1="110.103" x2="199.674" y2="110.103" gradientUnits="userSpaceOnUse">
<stop stop-color="#7AB547"/>
<stop offset="1" stop-color="white"/>
</linearGradient>
<linearGradient id="paint12_linear_3069_384" x1="39.9401" y1="116.469" x2="203.856" y2="116.469" gradientUnits="userSpaceOnUse">
<stop stop-color="#7AB547"/>
<stop offset="1" stop-color="white"/>
</linearGradient>
<linearGradient id="paint13_linear_3069_384" x1="35.7111" y1="122.834" x2="208.085" y2="122.834" gradientUnits="userSpaceOnUse">
<stop stop-color="#7AB547"/>
<stop offset="1" stop-color="white"/>
</linearGradient>
<linearGradient id="paint14_linear_3069_384" x1="31.4425" y1="129.201" x2="212.354" y2="129.201" gradientUnits="userSpaceOnUse">
<stop stop-color="#7AB547"/>
<stop offset="1" stop-color="white"/>
</linearGradient>
<linearGradient id="paint15_linear_3069_384" x1="27.1391" y1="135.566" x2="216.657" y2="135.566" gradientUnits="userSpaceOnUse">
<stop stop-color="#7AB547"/>
<stop offset="1" stop-color="white"/>
</linearGradient>
<linearGradient id="paint16_linear_3069_384" x1="22.8055" y1="141.932" x2="220.99" y2="141.932" gradientUnits="userSpaceOnUse">
<stop stop-color="#7AB547"/>
<stop offset="1" stop-color="white"/>
</linearGradient>
<linearGradient id="paint17_linear_3069_384" x1="18.4457" y1="148.298" x2="225.35" y2="148.298" gradientUnits="userSpaceOnUse">
<stop stop-color="#7AB547"/>
<stop offset="1" stop-color="white"/>
</linearGradient>
<linearGradient id="paint18_linear_3069_384" x1="14.0626" y1="154.664" x2="229.734" y2="154.664" gradientUnits="userSpaceOnUse">
<stop stop-color="#7AB547"/>
<stop offset="1" stop-color="white"/>
</linearGradient>
<linearGradient id="paint19_linear_3069_384" x1="9.65862" y1="161.029" x2="234.137" y2="161.029" gradientUnits="userSpaceOnUse">
<stop stop-color="#7AB547"/>
<stop offset="1" stop-color="white"/>
</linearGradient>
<linearGradient id="paint20_linear_3069_384" x1="5.23718" y1="167.395" x2="238.559" y2="167.395" gradientUnits="userSpaceOnUse">
<stop stop-color="#7AB547"/>
<stop offset="1" stop-color="white"/>
</linearGradient>
<linearGradient id="paint21_linear_3069_384" x1="0.798959" y1="173.761" x2="242.997" y2="173.761" gradientUnits="userSpaceOnUse">
<stop stop-color="#7AB547"/>
<stop offset="1" stop-color="white"/>
</linearGradient>
</defs>
</svg>
