<svg width="392" height="351" viewBox="0 0 392 351" fill="none" xmlns="http://www.w3.org/2000/svg">
<g opacity="0.9">
<path d="M103.698 258.737C82.6628 235.048 45.8247 231.732 21.4177 251.33C-2.98937 270.927 -5.72286 306.018 15.3123 329.707C36.3474 353.396 73.1855 356.713 97.5926 337.115C122 317.517 124.733 282.426 103.698 258.737Z" stroke="url(#paint0_linear_1018_156)" stroke-opacity="0.8" stroke-width="2.27114" stroke-miterlimit="10"/>
<path d="M113.6 250.782C91.2735 225.639 52.1737 222.118 26.2684 242.919C0.363077 263.72 -2.53785 300.965 19.789 326.109C42.1158 351.252 81.2157 354.773 107.121 333.972C133.026 313.171 135.927 275.926 113.6 250.782Z" stroke="url(#paint1_linear_1018_156)" stroke-opacity="0.8" stroke-width="2.27114" stroke-miterlimit="10"/>
<path d="M123.902 242.505C100.094 215.693 58.3992 211.94 30.7742 234.121C3.14928 256.303 0.055264 296.02 23.8636 322.832C47.6719 349.644 89.3668 353.398 116.992 331.216C144.617 309.035 147.711 269.318 123.902 242.505Z" stroke="url(#paint2_linear_1018_156)" stroke-opacity="0.8" stroke-width="2.27114" stroke-miterlimit="10"/>
<path d="M134.535 233.964C109.088 205.306 64.5227 201.294 34.9964 225.002C5.47004 248.71 2.16339 291.162 27.6108 319.819C53.0582 348.477 97.6232 352.49 127.15 328.782C156.676 305.073 159.982 262.622 134.535 233.964Z" stroke="url(#paint3_linear_1018_156)" stroke-opacity="0.8" stroke-width="2.27114" stroke-miterlimit="10"/>
<path d="M145.438 225.206C118.223 194.557 70.5628 190.266 38.9857 215.621C7.40855 240.976 3.8723 286.376 31.0872 317.024C58.3022 347.673 105.963 351.964 137.54 326.609C169.117 301.254 172.653 255.854 145.438 225.206Z" stroke="url(#paint4_linear_1018_156)" stroke-opacity="0.8" stroke-width="2.27114" stroke-miterlimit="10"/>
<path d="M156.561 216.27C127.474 183.513 76.534 178.927 42.7839 206.027C9.03387 233.126 5.25405 281.65 34.3415 314.407C63.4289 347.165 114.369 351.751 148.119 324.651C181.869 297.551 185.649 249.028 156.561 216.27Z" stroke="url(#paint5_linear_1018_156)" stroke-opacity="0.8" stroke-width="2.27114" stroke-miterlimit="10"/>
<path d="M167.866 207.189C136.82 172.225 82.4494 167.33 46.4266 196.255C10.4038 225.179 6.3697 276.971 37.4161 311.934C68.4626 346.898 122.833 351.793 158.856 322.868C194.878 293.944 198.913 242.152 167.866 207.189Z" stroke="url(#paint6_linear_1018_156)" stroke-opacity="0.8" stroke-width="2.27114" stroke-miterlimit="10"/>
<path d="M179.32 197.987C146.244 160.737 88.3183 155.522 49.9399 186.338C11.5615 217.154 7.26354 272.332 40.3401 309.582C73.4166 346.832 131.342 352.047 169.721 321.231C208.099 290.415 212.397 235.237 179.32 197.987Z" stroke="url(#paint7_linear_1018_156)" stroke-opacity="0.8" stroke-width="2.27114" stroke-miterlimit="10"/>
<path d="M190.897 188.688C155.732 149.086 94.1495 143.542 53.3479 176.304C12.5464 209.065 7.97706 267.727 43.1419 307.329C78.3068 346.93 139.89 352.475 180.691 319.713C221.493 286.951 226.062 228.289 190.897 188.688Z" stroke="url(#paint8_linear_1018_156)" stroke-opacity="0.8" stroke-width="2.27114" stroke-miterlimit="10"/>
<path d="M202.577 179.306C165.275 137.297 99.9492 131.416 56.668 166.169C13.3867 200.921 8.53966 263.149 45.8417 305.157C83.1438 347.165 148.469 353.047 191.751 318.294C235.032 283.541 239.879 221.314 202.577 179.306Z" stroke="url(#paint9_linear_1018_156)" stroke-opacity="0.8" stroke-width="2.27114" stroke-miterlimit="10"/>
<path d="M214.342 169.854C174.862 125.393 105.721 119.168 59.9127 155.95C14.1041 192.732 8.97401 258.593 48.4544 303.055C87.9347 347.516 157.075 353.741 202.884 316.959C248.692 280.177 253.822 214.316 214.342 169.854Z" stroke="url(#paint10_linear_1018_156)" stroke-opacity="0.8" stroke-width="2.27114" stroke-miterlimit="10"/>
<path d="M226.18 160.345C184.487 113.392 111.472 106.818 63.096 145.661C14.7203 184.505 9.30278 254.057 50.9957 301.01C92.6886 347.963 165.704 354.537 214.079 315.694C262.455 276.85 267.873 207.298 226.18 160.345Z" stroke="url(#paint11_linear_1018_156)" stroke-opacity="0.8" stroke-width="2.27114" stroke-miterlimit="10"/>
<path d="M238.079 150.786C194.145 101.308 117.204 94.3811 66.2265 135.313C15.2495 176.246 9.54041 249.537 53.475 299.015C97.4096 348.493 174.351 355.42 225.328 314.488C276.305 273.555 282.014 200.264 238.079 150.786Z" stroke="url(#paint12_linear_1018_156)" stroke-opacity="0.8" stroke-width="2.27114" stroke-miterlimit="10"/>
<path d="M250.03 141.186C203.829 89.1558 122.918 81.8709 69.3104 124.915C15.7032 167.959 9.69971 245.033 55.9013 297.063C102.103 349.094 183.014 356.379 236.621 313.334C290.228 270.29 296.232 193.217 250.03 141.186Z" stroke="url(#paint13_linear_1018_156)" stroke-opacity="0.8" stroke-width="2.27114" stroke-miterlimit="10"/>
<path d="M262.027 131.549C213.537 76.9411 128.619 69.2952 72.3568 114.471C16.0946 159.647 9.79395 240.538 58.2838 295.145C106.774 349.753 191.692 357.399 247.954 312.223C304.216 267.047 310.517 186.156 262.027 131.549Z" stroke="url(#paint14_linear_1018_156)" stroke-opacity="0.8" stroke-width="2.27114" stroke-miterlimit="10"/>
<path d="M274.064 121.88C223.267 64.6748 134.309 56.6654 75.3697 103.991C16.4307 151.316 9.83002 236.055 60.6267 293.261C111.423 350.466 200.382 358.475 259.321 311.15C318.26 263.825 324.86 179.086 274.064 121.88Z" stroke="url(#paint15_linear_1018_156)" stroke-opacity="0.8" stroke-width="2.27114" stroke-miterlimit="10"/>
<path d="M286.133 112.185C233.013 52.3632 139.987 43.9877 78.3519 93.4776C16.7173 142.967 9.81455 231.582 62.9343 291.403C116.054 351.225 209.081 359.6 270.715 310.111C332.35 260.621 339.253 172.006 286.133 112.185Z" stroke="url(#paint16_linear_1018_156)" stroke-opacity="0.8" stroke-width="2.27114" stroke-miterlimit="10"/>
<path d="M298.233 102.465C242.776 40.0113 145.656 31.2672 81.3098 82.9343C16.9636 134.601 9.75735 227.115 65.2143 289.568C120.671 352.022 217.791 360.766 282.137 309.099C346.483 257.432 353.689 164.919 298.233 102.465Z" stroke="url(#paint17_linear_1018_156)" stroke-opacity="0.8" stroke-width="2.27114" stroke-miterlimit="10"/>
<path d="M310.359 92.7242C252.553 27.6246 151.318 18.5101 84.2452 72.3664C17.1726 126.223 9.66088 222.656 67.4674 287.755C125.274 352.855 226.509 361.97 293.581 308.113C360.654 254.257 368.166 157.824 310.359 92.7242Z" stroke="url(#paint18_linear_1018_156)" stroke-opacity="0.8" stroke-width="2.27114" stroke-miterlimit="10"/>
<path d="M322.507 82.9662C262.34 15.2079 156.971 5.721 87.1595 61.7766C17.3479 117.832 9.52968 218.203 69.697 285.961C129.864 353.72 235.233 363.206 305.044 307.151C374.856 251.095 382.674 150.724 322.507 82.9662Z" stroke="url(#paint19_linear_1018_156)" stroke-opacity="0.8" stroke-width="2.27114" stroke-miterlimit="10"/>
<path d="M334.676 73.1906C272.139 2.76312 162.619 -7.09736 90.0573 51.1665C17.4954 109.43 9.36905 213.755 71.9065 284.183C134.444 354.61 243.964 364.471 316.525 306.207C389.087 247.943 397.214 143.618 334.676 73.1906Z" stroke="url(#paint20_linear_1018_156)" stroke-opacity="0.8" stroke-width="2.27114" stroke-miterlimit="10"/>
<path d="M346.863 63.401C281.946 -9.70574 168.261 -19.9416 92.9385 40.5387C17.6165 101.019 9.18121 209.313 74.0978 282.419C139.014 355.526 252.7 365.762 328.022 305.282C403.344 244.801 411.78 136.508 346.863 63.401Z" stroke="url(#paint21_linear_1018_156)" stroke-opacity="0.8" stroke-width="2.27114" stroke-miterlimit="10"/>
</g>
<defs>
<linearGradient id="paint0_linear_1018_156" x1="97.5926" y1="337.115" x2="25.8518" y2="247.769" gradientUnits="userSpaceOnUse">
<stop stop-color="#7AB547"/>
<stop offset="1" stop-color="white"/>
</linearGradient>
<linearGradient id="paint1_linear_1018_156" x1="107.121" y1="333.972" x2="30.9748" y2="239.14" gradientUnits="userSpaceOnUse">
<stop stop-color="#7AB547"/>
<stop offset="1" stop-color="white"/>
</linearGradient>
<linearGradient id="paint2_linear_1018_156" x1="116.992" y1="331.216" x2="35.793" y2="230.092" gradientUnits="userSpaceOnUse">
<stop stop-color="#7AB547"/>
<stop offset="1" stop-color="white"/>
</linearGradient>
<linearGradient id="paint3_linear_1018_156" x1="127.15" y1="328.782" x2="40.3606" y2="220.695" gradientUnits="userSpaceOnUse">
<stop stop-color="#7AB547"/>
<stop offset="1" stop-color="white"/>
</linearGradient>
<linearGradient id="paint4_linear_1018_156" x1="137.54" y1="326.609" x2="44.7225" y2="211.015" gradientUnits="userSpaceOnUse">
<stop stop-color="#7AB547"/>
<stop offset="1" stop-color="white"/>
</linearGradient>
<linearGradient id="paint5_linear_1018_156" x1="148.119" y1="324.651" x2="48.9155" y2="201.103" gradientUnits="userSpaceOnUse">
<stop stop-color="#7AB547"/>
<stop offset="1" stop-color="white"/>
</linearGradient>
<linearGradient id="paint6_linear_1018_156" x1="158.856" y1="322.868" x2="52.9711" y2="191" gradientUnits="userSpaceOnUse">
<stop stop-color="#7AB547"/>
<stop offset="1" stop-color="white"/>
</linearGradient>
<linearGradient id="paint7_linear_1018_156" x1="169.721" y1="321.231" x2="56.9123" y2="180.739" gradientUnits="userSpaceOnUse">
<stop stop-color="#7AB547"/>
<stop offset="1" stop-color="white"/>
</linearGradient>
<linearGradient id="paint8_linear_1018_156" x1="180.691" y1="319.713" x2="60.7606" y2="170.352" gradientUnits="userSpaceOnUse">
<stop stop-color="#7AB547"/>
<stop offset="1" stop-color="white"/>
</linearGradient>
<linearGradient id="paint9_linear_1018_156" x1="191.751" y1="318.294" x2="64.5311" y2="159.855" gradientUnits="userSpaceOnUse">
<stop stop-color="#7AB547"/>
<stop offset="1" stop-color="white"/>
</linearGradient>
<linearGradient id="paint10_linear_1018_156" x1="202.884" y1="316.959" x2="68.235" y2="149.268" gradientUnits="userSpaceOnUse">
<stop stop-color="#7AB547"/>
<stop offset="1" stop-color="white"/>
</linearGradient>
<linearGradient id="paint11_linear_1018_156" x1="214.079" y1="315.694" x2="71.8847" y2="138.604" gradientUnits="userSpaceOnUse">
<stop stop-color="#7AB547"/>
<stop offset="1" stop-color="white"/>
</linearGradient>
<linearGradient id="paint12_linear_1018_156" x1="225.328" y1="314.488" x2="75.4878" y2="127.877" gradientUnits="userSpaceOnUse">
<stop stop-color="#7AB547"/>
<stop offset="1" stop-color="white"/>
</linearGradient>
<linearGradient id="paint13_linear_1018_156" x1="236.621" y1="313.334" x2="79.0496" y2="117.095" gradientUnits="userSpaceOnUse">
<stop stop-color="#7AB547"/>
<stop offset="1" stop-color="white"/>
</linearGradient>
<linearGradient id="paint14_linear_1018_156" x1="247.954" y1="312.223" x2="82.5783" y2="106.264" gradientUnits="userSpaceOnUse">
<stop stop-color="#7AB547"/>
<stop offset="1" stop-color="white"/>
</linearGradient>
<linearGradient id="paint15_linear_1018_156" x1="259.321" y1="311.15" x2="86.0774" y2="95.3929" gradientUnits="userSpaceOnUse">
<stop stop-color="#7AB547"/>
<stop offset="1" stop-color="white"/>
</linearGradient>
<linearGradient id="paint16_linear_1018_156" x1="270.715" y1="310.111" x2="89.5494" y2="84.4865" gradientUnits="userSpaceOnUse">
<stop stop-color="#7AB547"/>
<stop offset="1" stop-color="white"/>
</linearGradient>
<linearGradient id="paint17_linear_1018_156" x1="282.137" y1="309.099" x2="93" y2="73.5477" gradientUnits="userSpaceOnUse">
<stop stop-color="#7AB547"/>
<stop offset="1" stop-color="white"/>
</linearGradient>
<linearGradient id="paint18_linear_1018_156" x1="293.581" y1="308.113" x2="96.4307" y2="62.5821" gradientUnits="userSpaceOnUse">
<stop stop-color="#7AB547"/>
<stop offset="1" stop-color="white"/>
</linearGradient>
<linearGradient id="paint19_linear_1018_156" x1="305.044" y1="307.151" x2="99.8425" y2="51.5926" gradientUnits="userSpaceOnUse">
<stop stop-color="#7AB547"/>
<stop offset="1" stop-color="white"/>
</linearGradient>
<linearGradient id="paint20_linear_1018_156" x1="316.525" y1="306.207" x2="103.24" y2="40.5814" gradientUnits="userSpaceOnUse">
<stop stop-color="#7AB547"/>
<stop offset="1" stop-color="white"/>
</linearGradient>
<linearGradient id="paint21_linear_1018_156" x1="328.022" y1="305.282" x2="106.623" y2="29.5508" gradientUnits="userSpaceOnUse">
<stop stop-color="#7AB547"/>
<stop offset="1" stop-color="white"/>
</linearGradient>
</defs>
</svg>
